<?xml version="1.0" encoding="utf-8"?>
<svg id="master-artboard" viewBox="0 0 336 235.2" version="1.1" xmlns="http://www.w3.org/2000/svg" x="0px" y="0px" style="enable-background:new 0 0 336 235.2;" width="336px" height="235.1999969482422px">

<path d="M 0 0 H 336 V 235.199997 H 0 V 0 Z" id="background" class="st0" style="fill: rgb(207, 219, 229);"/>
<g id="envelope">
	<path d="M 247.10000610351562 19.399999618530273 L 247.6999969482422 18.5 L 247.10000610351562 18.5 L 247.10000610351562 18.5 L 172.10000610351562 18.5 L 169.5 18.5 L 169.10000610351562 18.100000381469727 L 169.10000610351562 18.5 L 169.10000610351562 121.30000305175781 L 169.10000610351562 121.5 L 169.60000610351562 121.5 L 169.1999969482422 122 L 247.6999969482422 122 L 247.10000610351562 121.19999694824219 Z" class="st1" style="fill: rgb(210, 207, 214);"/>
	<g>
		<path d="M 167.800003 18.5 H 242.800003 V 121.5 H 167.800003 V 18.5 Z" class="st2" style="fill: rgb(189, 195, 199);"/>
		<path d="M 164.800003 18.5 H 242.800003 V 121.5 H 164.800003 V 18.5 Z" class="st1" style="fill: rgb(210, 207, 214);"/>
		<path d="M 214.1999969482422 69.69999694824219 L 164.8000030517578 121.30000305175781 L 164.8000030517578 18.100000381469727 Z" class="st3" style="fill: rgb(255, 255, 255);"/>
		<path d="M 209 75.0999984741211 L 169 116.80000305175781 L 165 122 L 243.39999389648438 122 Z" class="st4" style="fill: rgb(188, 184, 190);"/>
		<path d="M 165.1999969482422 18.5 L 209.5 64.80000305175781 L 243.39999389648438 18.5 Z" class="st4" style="fill: rgb(188, 184, 190);"/>
	</g>
</g>
<g id="phone">
	<path class="st1" d="M309.3,18.5h-43c-3.3,0-6,2.7-6,6v90c0,3.3,2.7,6,6,6h43c3.3,0,6-2.7,6-6v-90&#10;&#9;&#9;C315.2,21.2,312.6,18.5,309.3,18.5z" style="fill: rgb(210, 207, 214);"/>
	<g>
		<g>
			<path class="st3" d="M311.8,114.5c0,3.3-2.7,6-6,6h-43c-3.3,0-6-2.7-6-6v-90c0-3.3,2.7-6,6-6h43c3.3,0,6,2.7,6,6V114.5z" style="fill: rgb(255, 255, 255);"/>
			<path d="M 261.799988 26.5 H 307.799988 V 105.5 H 261.799988 V 26.5 Z" class="st5" style="fill: rgb(88, 103, 115);"/>
			<path d="M 289.300006 113.900002 A 4.2 4.2 0 0 1 285.100006 118.100001 A 4.2 4.2 0 0 1 280.900006 113.900002 A 4.2 4.2 0 0 1 285.100006 109.700002 A 4.2 4.2 0 0 1 289.300006 113.900002 Z" class="st6" style="fill: rgb(208, 211, 214);"/>
		</g>
		<g>
			<g>
				<path d="M 280.200012 86.400002 H 289.700012 V 95.900002 H 280.200012 V 86.400002 Z" class="st7" style="fill: rgb(246, 151, 119);"/>
				<path d="M 293.700012 86.400002 H 303.200012 V 95.900002 H 293.700012 V 86.400002 Z" class="st8" style="fill: rgb(178, 225, 238);"/>
				<path d="M 266.700012 59.5 H 276.200012 V 69 H 266.700012 V 59.5 Z" class="st3" style="fill: rgb(255, 255, 255);"/>
				<path d="M 280.200012 59.5 H 289.700012 V 69 H 280.200012 V 59.5 Z" class="st9" style="fill: rgb(250, 185, 82);"/>
				<path d="M 266.700012 46 H 276.200012 V 55.5 H 266.700012 V 46 Z" class="st9" style="fill: rgb(250, 185, 82);"/>
				<path d="M 280.200012 46 H 289.700012 V 55.5 H 280.200012 V 46 Z" class="st8" style="fill: rgb(178, 225, 238);"/>
				<path d="M 293.700012 46 H 303.200012 V 55.5 H 293.700012 V 46 Z" class="st7" style="fill: rgb(246, 151, 119);"/>
				<path d="M 266.700012 32.599998 H 276.200012 V 42.099998 H 266.700012 V 32.599998 Z" class="st7" style="fill: rgb(246, 151, 119);"/>
				<path d="M 280.200012 32.599998 H 289.700012 V 42.099998 H 280.200012 V 32.599998 Z" class="st3" style="fill: rgb(255, 255, 255);"/>
			</g>
			<g>
				<path d="M 293.700012 32.599998 H 303.200012 V 42.099998 H 293.700012 V 32.599998 Z" class="st9" style="fill: rgb(250, 185, 82);"/>
			</g>
			<g>
				<path d="M 266.700012 86.400002 H 276.200012 V 95.900002 H 266.700012 V 86.400002 Z" class="st9" style="fill: rgb(250, 185, 82);"/>
			</g>
		</g>
	</g>
</g>

<g id="pencil">
	<path class="st1" d="M227.7,104.1l13.7,8.7l-3-6.1c0,0,0,0,0,0l-4.2-8.5l0,0L181,38.9l0,0l-1.2-1.4c-1.1-1.2-3-1.3-4.2-0.2l-2.2,2&#10;&#9;&#9;c-1.2,1.1-1.3,3-0.2,4.2l1.2,1.4l0.5,0.5l0.8,0.9l0,0L227.7,104.1L227.7,104.1z" style="fill: rgb(210, 207, 214);"/>
	<g>
		<path d="M 230.3000030517578 98.0999984741211 L 237.5 112.69999694824219 L 223.6999969482422 104 Z" class="st3" style="fill: rgb(255, 255, 255);"/>
		<path class="st10" d="M233,107.6c-0.5,0.5-0.9,1-1.1,1.6l5.6,3.6l-3-6.1C234,106.9,233.5,107.2,233,107.6z" style="fill: rgb(51, 51, 51);"/>
		<g>
			
				<path d="M 195.899994 31.700001 H 204.799994 V 111.399998 H 195.899994 V 31.700001 Z" transform="matrix(0.743 -0.6693 0.6693 0.743 3.6496 152.5097)" class="st9" style="fill: rgb(250, 185, 82);"/>
			<g>
				<path class="st7" d="M177,38.9l-1.2-1.4c-1.1-1.2-3-1.3-4.2-0.2l-2.2,2c-1.2,1.1-1.3,3-0.2,4.2l1.2,1.4L177,38.9z" style="fill: rgb(246, 151, 119);"/>
				<path d="M 170.60000610351562 45.099998474121094 L 171.6999969482422 46.29999923706055 L 171.6999969482422 46.29999923706055 Z" class="st7" style="fill: rgb(246, 151, 119);"/>
			</g>
			
				<path d="M 198.399994 31.700001 H 202.499994 V 111.399998 H 198.399994 V 31.700001 Z" transform="matrix(0.743 -0.6693 0.6693 0.743 3.6471 152.5035)" class="st12" style="opacity: 0.3; fill: rgb(255, 255, 255);"/>
		</g>
	</g>
</g>
<g id="clips">
	<g>
		<path class="st1" d="M289.2,139.1l7.1,1.5c2,0.4,3.9-0.6,4.3-2.3c0.4-1.7-1-3.4-3-3.9l-7.1-1.5l-5.6-1.2l-4.9-1&#10;&#9;&#9;&#9;c-1.2-0.3-2.4,0.5-2.7,1.7c-0.3,1.2,0.5,2.4,1.8,2.7l13.3,2.8l0.2-1l-13.3-2.8c-0.7-0.1-1.1-0.8-1-1.4c0.1-0.6,0.8-1,1.5-0.9&#10;&#9;&#9;&#9;l4.9,1l5.6,1.2l7.1,1.5c1.5,0.3,2.4,1.5,2.2,2.6c-0.2,1.1-1.6,1.8-3.1,1.5l-7.1-1.5l-5.8-1.2l-5-1.1c-1.9-0.4-3.1-2.1-2.8-3.7&#10;&#9;&#9;&#9;c0.4-1.7,2.2-2.7,4.1-2.3l14,3l0.2-1l-14-3c-2.4-0.5-4.8,0.9-5.3,3.1c-0.5,2.2,1.1,4.5,3.6,5l5,1.1L289.2,139.1z" style="fill: rgb(210, 207, 214);"/>
		<path class="st1" d="M286.2,177.4c-2.3-0.1-4.2,1.9-4.2,4.4l-0.1,5.2l-0.1,5.9l-0.2,7.2c0,2.1,1.3,3.8,3.1,3.8&#10;&#9;&#9;&#9;c1.7,0,3.2-1.6,3.3-3.7l0.2-7.2l0.1-5.7l0.1-5c0-1.3-0.9-2.3-2.2-2.3c-1.2,0-2.3,1-2.3,2.2l-0.3,13.6l1,0l0.3-13.6&#10;&#9;&#9;&#9;c0-0.7,0.6-1.2,1.2-1.2c0.7,0,1.2,0.6,1.2,1.3l-0.1,5L287,193l-0.2,7.2c0,1.5-1,2.7-2.2,2.6c-1.2,0-2.1-1.3-2.1-2.7l0.2-7.2&#10;&#9;&#9;&#9;l0.1-5.9l0.1-5.2c0-1.9,1.5-3.5,3.2-3.4c1.7,0,3,1.6,3,3.6l-0.3,14.3l1,0l0.3-14.3C290.3,179.5,288.5,177.4,286.2,177.4z" style="fill: rgb(210, 207, 214);"/>
		<path class="st1" d="M316.1,167l-5.5-4.7l-4.3-3.7l-3.8-3.3c-1-0.8-2.4-0.7-3.2,0.2c-0.8,0.9-0.7,2.4,0.3,3.2l10.3,8.9l0.7-0.8&#10;&#9;&#9;&#9;l-10.3-8.9c-0.5-0.4-0.6-1.2-0.2-1.7c0.4-0.5,1.2-0.5,1.7-0.1l3.8,3.3l4.3,3.7l5.5,4.7c1.1,1,1.4,2.5,0.6,3.4&#10;&#9;&#9;&#9;c-0.8,0.9-2.3,0.8-3.4-0.2l-5.5-4.7l-4.5-3.9l-3.9-3.4c-1.5-1.3-1.7-3.3-0.6-4.6c1.1-1.3,3.2-1.3,4.7-0.1l10.8,9.4l0.7-0.8&#10;&#9;&#9;&#9;l-10.8-9.4c-1.9-1.6-4.6-1.6-6.1,0.2c-1.5,1.7-1.2,4.5,0.7,6.1l3.9,3.4l4.5,3.9l5.5,4.7c1.6,1.3,3.8,1.4,4.9,0&#10;&#9;&#9;&#9;C318,170.5,317.6,168.4,316.1,167z" style="fill: rgb(210, 207, 214);"/>
		<path class="st1" d="M307.8,185l0.2-0.6c0.9-2.3,0-4.9-2.1-5.7c-2.1-0.9-4.6,0.3-5.5,2.7l-1.9,4.8l-2.2,5.5l-2.7,6.7&#10;&#9;&#9;&#9;c-0.8,1.9-0.1,4,1.5,4.6c1.6,0.7,3.6-0.4,4.3-2.3l1.7-4.1l0.2,2.7l0.4,7.2c0.1,2.1,1.7,3.6,3.4,3.5c1.7-0.1,3.1-1.9,2.9-3.9&#10;&#9;&#9;&#9;l-0.5-7.2l-0.4-5.7l-0.3-5c0-0.2-0.1-0.4-0.1-0.6l0.5-1.4c0.2,0.5,0.4,1,0.4,1.6l0.9,14.3l1-0.1l-0.9-14.3&#10;&#9;&#9;&#9;C308.7,186.7,308.3,185.7,307.8,185z M298.4,200.3c-0.6,1.4-1.9,2.1-3,1.7c-1.1-0.4-1.5-1.9-1-3.3l2.7-6.7l2.2-5.5l1.9-4.8&#10;&#9;&#9;&#9;c0.7-1.8,2.6-2.7,4.2-2.1c1.6,0.6,2.3,2.6,1.6,4.4l-0.1,0.2c-0.2-0.2-0.5-0.3-0.8-0.5c0.3-1.1-0.3-2.2-1.3-2.6&#10;&#9;&#9;&#9;c-1.1-0.5-2.5,0.1-2.9,1.3l-5.1,12.6l1,0.4l2.7-6.8l0.3,4.7l0,0.8L298.4,200.3z M301.8,191.9l-0.2-3.7c-0.1-1.9,1.2-3.6,2.9-3.7&#10;&#9;&#9;&#9;c0.1,0,0.2,0,0.3,0l-0.7,1.6c-1,0.3-1.8,1.2-1.7,2.4l0.1,1.6L301.8,191.9z M305.2,183.5c-0.3,0-0.5-0.1-0.8,0&#10;&#9;&#9;&#9;c-0.8,0-1.4,0.3-2,0.8l0.6-1.4c0.3-0.6,1-1,1.6-0.7C305,182.3,305.3,182.9,305.2,183.5z M304.2,188.7l0.6-1.6&#10;&#9;&#9;&#9;c0.3,0.1,0.6,0.2,0.8,0.5l-1.9,4.7l-0.1-2L304.2,188.7z M305.3,186.1l0.6-1.4c0.3,0.1,0.5,0.3,0.7,0.5l-0.5,1.3&#10;&#9;&#9;&#9;C305.8,186.3,305.5,186.2,305.3,186.1z M302.1,194l0.6-1.5l0.1,2l-0.7,1.8l-0.1-2L302.1,194z M306.2,193.2l0.4,5.7l0.4,7.2&#10;&#9;&#9;&#9;c0.1,1.5-0.8,2.7-2,2.8c-1.2,0.1-2.2-1.1-2.3-2.6l-0.4-7.2l-0.1-1.6l0.5,0.2l0.3-0.8l0.3,5.1l1-0.1l-0.5-7.2l2.1-5.1L306.2,193.2z&#10;&#9;&#9;&#9;" style="fill: rgb(210, 207, 214);"/>
	</g>
	<g>
		<path class="st9" d="M273.1,131.8c-0.5,2.2,1.1,4.5,3.6,5l5,1.1l5.8,1.2l7.1,1.5c2,0.4,3.9-0.6,4.3-2.3c0.4-1.7-1-3.4-3-3.9&#10;&#9;&#9;&#9;l-7.1-1.5l-5.6-1.2l-4.9-1c-1.2-0.3-2.4,0.5-2.7,1.7c-0.3,1.2,0.5,2.4,1.8,2.7l13.3,2.8l0.2-1l-13.3-2.8c-0.7-0.1-1.1-0.8-1-1.4&#10;&#9;&#9;&#9;c0.1-0.6,0.8-1,1.5-0.9l4.9,1l5.6,1.2l7.1,1.5c1.5,0.3,2.4,1.5,2.2,2.6c-0.2,1.1-1.6,1.8-3.1,1.5l-7.1-1.5l-5.8-1.2l-5-1.1&#10;&#9;&#9;&#9;c-1.9-0.4-3.1-2.1-2.8-3.7c0.4-1.7,2.2-2.7,4.1-2.3l14,3l0.2-1l-14-3C276,128.2,273.6,129.6,273.1,131.8z" style="fill: rgb(250, 185, 82);"/>
		<path class="st3" d="M284.5,177.4c-2.3-0.1-4.2,1.9-4.2,4.4l-0.1,5.2l-0.1,5.9l-0.2,7.2c0,2.1,1.3,3.8,3.1,3.8&#10;&#9;&#9;&#9;c1.7,0,3.2-1.6,3.3-3.7l0.2-7.2l0.1-5.7l0.1-5c0-1.3-0.9-2.3-2.2-2.3c-1.2,0-2.3,1-2.3,2.2l-0.3,13.6l1,0l0.3-13.6&#10;&#9;&#9;&#9;c0-0.7,0.6-1.2,1.2-1.2c0.7,0,1.2,0.6,1.2,1.3l-0.1,5l-0.1,5.7l-0.2,7.2c0,1.5-1,2.7-2.2,2.6c-1.2,0-2.1-1.3-2.1-2.7l0.2-7.2&#10;&#9;&#9;&#9;l0.1-5.9l0.1-5.2c0-1.9,1.5-3.5,3.2-3.4c1.7,0,3,1.6,3,3.6l-0.3,14.3l1,0l0.3-14.3C288.6,179.5,286.8,177.4,284.5,177.4z" style="fill: rgb(255, 255, 255);"/>
		<path class="st5" d="M295.7,153.8c-1.5,1.7-1.2,4.5,0.7,6.1l3.9,3.4l4.5,3.9l5.5,4.7c1.6,1.3,3.8,1.4,4.9,0&#10;&#9;&#9;&#9;c1.1-1.3,0.8-3.5-0.7-4.8l-5.5-4.7l-4.3-3.7l-3.8-3.3c-1-0.8-2.4-0.7-3.2,0.2c-0.8,0.9-0.7,2.4,0.3,3.2l10.3,8.9l0.7-0.8&#10;&#9;&#9;&#9;l-10.3-8.9c-0.5-0.4-0.6-1.2-0.2-1.7c0.4-0.5,1.2-0.5,1.7-0.1l3.8,3.3l4.3,3.7l5.5,4.7c1.1,1,1.4,2.5,0.6,3.4&#10;&#9;&#9;&#9;c-0.8,0.9-2.3,0.8-3.4-0.2l-5.5-4.7l-4.5-3.9l-3.9-3.4c-1.5-1.3-1.7-3.3-0.6-4.6c1.1-1.3,3.2-1.3,4.7-0.1l10.8,9.4l0.7-0.8&#10;&#9;&#9;&#9;l-10.8-9.4C299.9,152,297.2,152,295.7,153.8z" style="fill: rgb(88, 103, 115);"/>
		<path class="st10" d="M304.2,178.7c-2.1-0.9-4.6,0.3-5.5,2.7l-1.9,4.8l-2.2,5.5l-2.7,6.7c-0.8,1.9-0.1,4,1.5,4.6&#10;&#9;&#9;&#9;c1.6,0.7,3.6-0.4,4.3-2.3l2.7-6.7l2.1-5.3l1.9-4.6c0.5-1.2-0.1-2.5-1.2-3c-1.1-0.5-2.5,0.1-2.9,1.3l-5.1,12.6l1,0.4l5.1-12.6&#10;&#9;&#9;&#9;c0.3-0.6,1-1,1.6-0.7c0.6,0.2,0.9,1,0.6,1.6l-1.9,4.6l-2.1,5.3l-2.7,6.7c-0.6,1.4-1.9,2.1-3,1.7c-1.1-0.4-1.5-1.9-1-3.3l2.7-6.7&#10;&#9;&#9;&#9;l2.2-5.5l1.9-4.8c0.7-1.8,2.6-2.7,4.2-2.1c1.6,0.6,2.3,2.6,1.6,4.4l-5.3,13.3l1,0.4l5.3-13.3C307.2,182.1,306.3,179.5,304.2,178.7&#10;&#9;&#9;&#9;z" style="fill: rgb(51, 51, 51);"/>
		<path class="st7" d="M302.7,183.4c-2.3,0.1-4,2.3-3.8,4.8l0.3,5.2l0.4,5.9l0.4,7.2c0.1,2.1,1.7,3.6,3.4,3.5&#10;&#9;&#9;&#9;c1.7-0.1,3.1-1.9,2.9-3.9l-0.5-7.2l-0.4-5.7l-0.3-5c-0.1-1.3-1.1-2.2-2.4-2.1c-1.2,0.1-2.2,1.2-2.1,2.4l0.8,13.6l1-0.1l-0.8-13.6&#10;&#9;&#9;&#9;c0-0.7,0.5-1.3,1.1-1.3c0.7,0,1.2,0.5,1.3,1.2l0.3,5l0.4,5.7l0.4,7.2c0.1,1.5-0.8,2.7-2,2.8c-1.2,0.1-2.2-1.1-2.3-2.6l-0.4-7.2&#10;&#9;&#9;&#9;l-0.4-5.9l-0.3-5.1c-0.1-1.9,1.2-3.6,2.9-3.7c1.7-0.1,3.2,1.4,3.3,3.3l0.9,14.3l1-0.1l-0.9-14.3&#10;&#9;&#9;&#9;C306.9,185.2,305,183.3,302.7,183.4z" style="fill: rgb(246, 151, 119);"/>
	</g>
</g>
<g id="tablet">
	<g>
		<path class="st1" d="M158.5,204.8c0,3.9-3.2,7.1-7.1,7.1H28.7c-3.9,0-7.1-3.2-7.1-7.1v-179c0-3.9,3.2-7.1,7.1-7.1h122.6&#10;&#9;&#9;&#9;c3.9,0,7.1,3.2,7.1,7.1V204.8z" style="fill: rgb(210, 207, 214);"/>
		<path class="st3" d="M154.2,204.8c0,3.9-3.2,7.1-7.1,7.1H24.5c-3.9,0-7.1-3.2-7.1-7.1v-179c0-3.9,3.2-7.1,7.1-7.1h122.6&#10;&#9;&#9;&#9;c3.9,0,7.1,3.2,7.1,7.1V204.8z" style="fill: rgb(255, 255, 255);"/>
	</g>
	<path d="M 22.799999 34.599998 H 148.799999 V 195.900002 H 22.799999 V 34.599998 Z" class="st13" style="fill: rgb(58, 58, 58);"/>
	<path class="st5" d="M90.6,204c0,2.6-2.1,4.8-4.8,4.8c-2.6,0-4.8-2.1-4.8-4.8c0-2.6,2.1-4.8,4.8-4.8&#10;&#9;&#9;C88.4,199.2,90.6,201.4,90.6,204" style="fill: rgb(88, 103, 115);"/>
	<path class="st5" d="M88,27.3c0,1.2-1,2.2-2.2,2.2c-1.2,0-2.2-1-2.2-2.2c0-1.2,1-2.2,2.2-2.2C87,25.1,88,26.1,88,27.3" style="fill: rgb(88, 103, 115);"/>
	<g>
		<g>
			<path class="st4" d="M142.4,94.7c0,3.2-2.6,5.7-5.7,5.7H34.9c-3.2,0-5.7-2.6-5.7-5.7V45.8c0-3.2,2.6-5.7,5.7-5.7h101.9&#10;&#9;&#9;&#9;&#9;c3.2,0,5.7,2.6,5.7,5.7V94.7z" style="fill: rgb(188, 184, 190);"/>
			<path d="M 33.299999 51.599998 H 138.299999 V 96.299999 H 33.299999 V 51.599998 Z" class="st8" style="fill: rgb(178, 225, 238);"/>
			<path class="st7" d="M36.9,46.8c0,1-0.8,1.8-1.8,1.8c-1,0-1.8-0.8-1.8-1.8c0-1,0.8-1.8,1.8-1.8C36.1,45,36.9,45.8,36.9,46.8z" style="fill: rgb(246, 151, 119);"/>
			<path d="M 42.3 46.799999 A 1.8 1.8 0 0 1 40.5 48.599999 A 1.8 1.8 0 0 1 38.7 46.799999 A 1.8 1.8 0 0 1 40.5 44.999999 A 1.8 1.8 0 0 1 42.3 46.799999 Z" class="st9" style="fill: rgb(250, 185, 82);"/>
			<path d="M 47.700001 46.799999 A 1.8 1.8 0 0 1 45.900002 48.599999 A 1.8 1.8 0 0 1 44.100002 46.799999 A 1.8 1.8 0 0 1 45.900002 44.999999 A 1.8 1.8 0 0 1 47.700001 46.799999 Z" class="st8" style="fill: rgb(178, 225, 238);"/>
		</g>
		<g>
			<path class="st3" d="M89.5,85.6l3-1.8l-1.4-2.4c0.5-0.4,1-0.9,1.4-1.4l2.4,1.4l1.8-3l-2.4-1.4c0.2-0.6,0.4-1.2,0.5-1.9l2.9,0&#10;&#9;&#9;&#9;&#9;l0-3.5l-2.9,0c-0.1-0.6-0.3-1.2-0.5-1.8l2.5-1.5l-1.8-3l-2.6,1.5c-0.4-0.5-0.8-0.9-1.3-1.3l1.5-2.6l-3-1.8L88,63.8&#10;&#9;&#9;&#9;&#9;c-0.6-0.2-1.2-0.4-1.8-0.5l0-3l-3.5,0l0,3c-0.6,0.1-1.2,0.3-1.8,0.5l-1.5-2.6l-3,1.8l1.5,2.5c-0.5,0.4-0.9,0.8-1.3,1.3l-2.5-1.5&#10;&#9;&#9;&#9;&#9;l-1.8,3l2.5,1.4c-0.2,0.6-0.4,1.2-0.5,1.8l-2.8,0l0,3.5l2.8,0c0.1,0.6,0.3,1.3,0.5,1.9l-2.4,1.4l1.8,3l2.3-1.3&#10;&#9;&#9;&#9;&#9;c0.4,0.5,0.9,1,1.4,1.4l-1.3,2.3l3,1.8l1.3-2.3c0.6,0.2,1.3,0.4,1.9,0.5l0,2.7h3.5l0-2.7c0.6-0.1,1.3-0.3,1.9-0.5L89.5,85.6z&#10;&#9;&#9;&#9;&#9; M78.5,77c-1.9-3.3-0.8-7.5,2.5-9.4c3.3-1.9,7.5-0.8,9.4,2.5c1.9,3.3,0.8,7.5-2.5,9.4C84.6,81.5,80.4,80.3,78.5,77z" style="fill: rgb(255, 255, 255);"/>
		</g>
	</g>
	<g>
		<path class="st1" d="M142.4,182.2c0,3.2-2.6,5.7-5.7,5.7H34.9c-3.2,0-5.7-2.6-5.7-5.7v-69.5c0-3.2,2.6-5.7,5.7-5.7h101.9&#10;&#9;&#9;&#9;c3.2,0,5.7,2.6,5.7,5.7V182.2z" style="fill: rgb(210, 207, 214);"/>
		<path class="st7" d="M36.9,113.7c0,1-0.8,1.8-1.8,1.8c-1,0-1.8-0.8-1.8-1.8c0-1,0.8-1.8,1.8-1.8C36.1,111.9,36.9,112.7,36.9,113.7&#10;&#9;&#9;&#9;z" style="fill: rgb(246, 151, 119);"/>
		<path d="M 42.3 113.699997 A 1.8 1.8 0 0 1 40.5 115.499997 A 1.8 1.8 0 0 1 38.7 113.699997 A 1.8 1.8 0 0 1 40.5 111.899997 A 1.8 1.8 0 0 1 42.3 113.699997 Z" class="st9" style="fill: rgb(250, 185, 82);"/>
		<path d="M 47.700001 113.699997 A 1.8 1.8 0 0 1 45.900002 115.499997 A 1.8 1.8 0 0 1 44.100002 113.699997 A 1.8 1.8 0 0 1 45.900002 111.899997 A 1.8 1.8 0 0 1 47.700001 113.699997 Z" class="st8" style="fill: rgb(178, 225, 238);"/>
		<g>
			<g>
				<path d="M 34.299999 118 H 138.299999 V 168.700001 H 34.299999 V 118 Z" class="st7" style="fill: rgb(246, 151, 119);"/>
				<g>
					<path class="st3" d="M84.5,131c-6.8,0-12.3,5.5-12.3,12.3c0,6.8,5.5,12.3,12.3,12.3c6.8,0,12.3-5.5,12.3-12.3&#10;&#9;&#9;&#9;&#9;&#9;&#9;C96.8,136.6,91.3,131,84.5,131z M84.5,153.9c-5.8,0-10.6-4.7-10.6-10.6c0-5.8,4.7-10.6,10.6-10.6c5.8,0,10.6,4.7,10.6,10.6&#10;&#9;&#9;&#9;&#9;&#9;&#9;C95.1,149.2,90.3,153.9,84.5,153.9z" style="fill: rgb(255, 255, 255);"/>
					<path d="M 82.30000305175781 139.60000610351562 L 88.9000015258789 143.39999389648438 L 82.30000305175781 147.1999969482422 Z" class="st3" style="fill: rgb(255, 255, 255);"/>
				</g>
			</g>
			<g>
				<path d="M 34.299999 168.800003 H 138.299999 V 184.000003 H 34.299999 V 168.800003 Z" class="st5" style="fill: rgb(88, 103, 115);"/>
				<g>
					<g>
						<g>
							<path class="st4" d="M125,175.7H70.2v1.3H125c0.4,0,0.7-0.3,0.7-0.7C125.7,176,125.4,175.7,125,175.7z" style="fill: rgb(188, 184, 190);"/>
							<path class="st9" d="M70.8,176.4c0,0.4-0.3,0.7-0.7,0.7H46.5c-0.4,0-0.7-0.3-0.7-0.7l0,0c0-0.4,0.3-0.7,0.7-0.7h23.7&#10;&#9;&#9;&#9;&#9;&#9;&#9;&#9;&#9;C70.5,175.7,70.8,176,70.8,176.4L70.8,176.4z" style="fill: rgb(250, 185, 82);"/>
						</g>
						<path d="M 72.099997 176.399994 A 1.9 1.9 0 0 1 70.199997 178.299994 A 1.9 1.9 0 0 1 68.299997 176.399994 A 1.9 1.9 0 0 1 70.199997 174.499994 A 1.9 1.9 0 0 1 72.099997 176.399994 Z" class="st3" style="fill: rgb(255, 255, 255);"/>
					</g>
					<g>
						<path d="M 38.79999923706055 174.3000030517578 L 42.400001525878906 176.39999389648438 L 38.79999923706055 178.39999389648438 Z" class="st4" style="fill: rgb(188, 184, 190);"/>
						<path d="M 131.10000610351562 175.10000610351562 L 129.39999389648438 175.10000610351562 L 129.39999389648438 177.60000610351562 L 131.10000610351562 177.60000610351562 L 133 179 L 133 173.6999969482422 Z" class="st4" style="fill: rgb(188, 184, 190);"/>
					</g>
				</g>
			</g>
		</g>
	</g>
</g>
<g id="camera">
	<path class="st1" d="M269.5,145.4h-0.3c0-0.1,0-0.2,0-0.2c0-2.2-1-4-2.2-4H258c-1.2,0-2.2,1.8-2.2,4c0,0.1,0,0.2,0,0.2h-11.3&#10;&#9;&#9;c-0.1-4.6-3.2-8.3-7-8.3h-34.4c-3.9,0-6.9,3.7-7,8.3h-11.9c0-0.1,0-0.2,0-0.2c0-2.2-1-4-2.2-4H173c-1.2,0-2.2,1.8-2.2,4&#10;&#9;&#9;c0,0.1,0,0.2,0,0.2h0.1c-3.8,0-6.9,3.1-6.9,6.9v51.6c0,3.8,3.1,6.9,6.9,6.9h34.6c4.5,2,9.5,3.1,14.7,3.1c5.2,0,10.2-1.1,14.7-3.1&#10;&#9;&#9;h34.6c3.8,0,6.9-3.1,6.9-6.9v-51.6h0C276.4,148.5,273.3,145.4,269.5,145.4z" style="fill: rgb(210, 207, 214);"/>
	<g>
		<g>
			<path class="st7" d="M181.1,145.4c0-0.1,0-0.2,0-0.2c0-2.2-1-4-2.2-4h-9.1c-1.2,0-2.2,1.8-2.2,4c0,0.1,0,0.2,0,0.2H181.1z" style="fill: rgb(246, 151, 119);"/>
			<path class="st10" d="M266.2,145.4c0-0.1,0-0.2,0-0.2c0-2.2-1-4-2.2-4h-9.1c-1.2,0-2.2,1.8-2.2,4c0,0.1,0,0.2,0,0.2H266.2z" style="fill: rgb(51, 51, 51);"/>
			<path class="st5" d="M266.4,145.4h-24.9c-0.1-4.6-3.2-8.3-7-8.3h-34.4c-3.9,0-6.9,3.7-7,8.3h-25.3c-3.8,0-6.9,3.1-6.9,6.9v51.6&#10;&#9;&#9;&#9;&#9;c0,3.8,3.1,6.9,6.9,6.9h98.6c3.8,0,6.9-3.1,6.9-6.9v-51.6h0C273.3,148.5,270.2,145.4,266.4,145.4z" style="fill: rgb(88, 103, 115);"/>
			<path class="st10" d="M253.1,178c0-19.9-16.1-36-36-36c-19.9,0-36,16.1-36,36c0,19.9,16.1,36,36,36&#10;&#9;&#9;&#9;&#9;C237,214,253.1,197.9,253.1,178" style="fill: rgb(51, 51, 51);"/>
			<path class="st4" d="M249.9,178c0-18.1-14.7-32.8-32.8-32.8c-18.1,0-32.8,14.7-32.8,32.8c0,18.1,14.7,32.8,32.8,32.8&#10;&#9;&#9;&#9;&#9;C235.2,210.7,249.9,196.1,249.9,178" style="fill: rgb(188, 184, 190);"/>
			<path class="st11" d="M246.7,178c0-16.4-13.3-29.6-29.6-29.6c-16.4,0-29.6,13.3-29.6,29.6c0,16.4,13.3,29.6,29.6,29.6&#10;&#9;&#9;&#9;&#9;C233.4,207.6,246.7,194.3,246.7,178" style="fill: rgb(61, 69, 74);"/>
			<path class="st8" d="M243.1,178c0-14.3-11.6-25.8-25.8-25.8c-14.3,0-25.8,11.6-25.8,25.8c0,14.3,11.6,25.8,25.8,25.8&#10;&#9;&#9;&#9;&#9;C231.5,203.8,243.1,192.2,243.1,178" style="fill: rgb(178, 225, 238);"/>
			<path class="st0" d="M237.5,178c0-11.2-9.1-20.2-20.2-20.2c-11.2,0-20.2,9.1-20.2,20.2c0,11.2,9.1,20.2,20.2,20.2&#10;&#9;&#9;&#9;&#9;C228.4,198.2,237.5,189.2,237.5,178" style="fill: rgb(207, 219, 229);"/>
			<path class="st3" d="M221.2,172.5c0,5.4-4.4,9.7-9.7,9.7c-5.4,0-9.7-4.4-9.7-9.7c0-5.4,4.4-9.7,9.7-9.7&#10;&#9;&#9;&#9;&#9;C216.8,162.8,221.2,167.2,221.2,172.5" style="fill: rgb(255, 255, 255);"/>
			<path class="st3" d="M227.4,184.3c0,2.2-1.8,4-4,4c-2.2,0-4-1.8-4-4c0-2.2,1.8-4,4-4C225.5,180.3,227.4,182.1,227.4,184.3" style="fill: rgb(255, 255, 255);"/>
		</g>
		<path class="st3" d="M181.9,151.8c0-1.4-1-2.6-2.2-2.6h-10.6c-1.2,0-2.2,1.2-2.2,2.6v6.2c0,1.4,1,2.6,2.2,2.6h10.6&#10;&#9;&#9;&#9;c1.2,0,2.2-1.2,2.2-2.6L181.9,151.8L181.9,151.8z" style="fill: rgb(255, 255, 255);"/>
	</g>
</g></svg>