<?xml version="1.0" encoding="utf-8"?>
<svg id="master-artboard" viewBox="0 0 1400 980" version="1.1" xmlns="http://www.w3.org/2000/svg" x="0px" y="0px" style="enable-background:new 0 0 1400 980;" width="1400px" height="980px">

<path d="M 0 0 H 1399.800049 V 979.900024 H 0 V 0 Z" class="st0" style="fill: rgb(37, 190, 199);" transform="matrix(1, 0, 0, 1, -2.842170943040401e-14, 0)"/>
<path class="st1" d="M954.5,718c0.1,0,7.2-0.7,12.6,4.1c4.4,3.9,6.6,10.5,6.6,19.7V980h12.6V741.8c0-13-3.6-22.8-10.8-29.2&#10;&#9;&#9;c-8.7-7.8-19.6-7.4-22-7.3h-69.6V718h69.8L954.5,718z" style="fill: rgb(240, 240, 239);" transform="matrix(1, 0, 0, 1, -2.842170943040401e-14, 0)"/>
<path d="M 250.3000030517578 145.8000030517578 L 216.1999969482422 191.6999969482422 L 216 191.8000030517578 L 238 358.6000061035156 L 409.6000061035156 333 L 382.3999938964844 126.0999984741211 Z" class="st3" style="fill: rgb(1, 1, 1); opacity: 0.1216;" transform="matrix(1, 0, 0, 1, -2.842170943040401e-14, 0)"/>
<g transform="matrix(1, 0, 0, 1, -2.842170943040401e-14, 0)">
		<g>
			<g>
				<path d="M 201.5 180.89999389648438 L 223.5 347.6000061035156 L 395.1000061035156 322.1000061035156 L 367.8999938964844 115.19999694824219 L 235.8000030517578 134.8000030517578 L 229.8000030517578 166.5 Z" class="st4" style="fill: rgb(255, 255, 255);"/>
			</g>
		</g>
		<g>
			<g>
				<path d="M 235.8000030517578 134.8000030517578 L 241.10000610351562 175 L 201.60000610351562 180.89999389648438 Z" class="st5" style="fill: rgb(39, 87, 122);"/>
			</g>
		</g>
	</g><path class="st6" d="M310.7,167.8l3.3-4.6c-7.6-6.1-17.4-9.1-27.6-7.6c-20.4,3-34.6,23.1-31.7,44.7c2.9,21.7,21.7,36.8,42.1,33.7&#10;&#9;&#9;&#9;c14.7-2.2,26.2-13.3,30.4-27.4l-35.6-11.8L310.7,167.8z" style="fill: rgb(241, 94, 34);" transform="matrix(1, 0, 0, 1, -5.684341886080802e-14, 0)"/><path class="st5" d="M333.6,186.9c-1.2-9.2-5.9-17.1-12.4-22.3l-19.2,27l-0.3,0l31,10.3c1.4-4.7,1.9-9.8,1.2-15.1L333.6,186.9z" style="fill: rgb(39, 87, 122);" transform="matrix(1, 0, 0, 1, -5.684341886080802e-14, 0)"/><path d="M 343.5 259.29998779296875 L 234.1999969482422 275.5 L 232.6999969482422 264.1000061035156 L 342 247.89999389648438 Z" class="st5" style="fill: rgb(39, 87, 122);" transform="matrix(1, 0, 0, 1, -5.684341886080802e-14, 0)"/><path d="M 361.20001220703125 277.70001220703125 L 236.89999389648438 296.20001220703125 L 235.39999389648438 284.79998779296875 L 359.70001220703125 266.29998779296875 Z" class="st5" style="fill: rgb(39, 87, 122);" transform="matrix(1, 0, 0, 1, -5.684341886080802e-14, 0)"/><path d="M 325.70001220703125 304.1000061035156 L 239.6999969482422 316.8999938964844 L 238.1999969482422 305.5 L 324.20001220703125 292.70001220703125 Z" class="st5" style="fill: rgb(39, 87, 122);" transform="matrix(1, 0, 0, 1, -5.684341886080802e-14, 0)"/>
<path d="M 240.89999389648438 98.5999984741211 L 121.19999694824219 161.10000610351562 L 102.30000305175781 216.10000610351562 L 102.0999984741211 216.1999969482422 L 172 367.3999938964844 L 327.6000061035156 286.20001220703125 Z" class="st3" style="fill: rgb(1, 1, 1); opacity: 0.1216;" transform="matrix(1, 0, 0, 1, -2.842170943040401e-14, 0)"/>
<g transform="matrix(1, 0, 0, 1, -2.842170943040401e-14, 0)">
		<g>
			<g>
				<path d="M 86.19999694824219 213.1999969482422 L 156.10000610351562 364.3999938964844 L 311.70001220703125 283.20001220703125 L 225 95.5999984741211 L 105.30000305175781 158.10000610351562 L 108.9000015258789 190.1999969482422 Z" class="st4" style="fill: rgb(255, 255, 255);"/>
			</g>
		</g>
		<g>
			<g>
				<path d="M 105.30000305175781 158.10000610351562 L 122.0999984741211 194.5 L 86.4000015258789 213.1999969482422 Z" class="st5" style="fill: rgb(39, 87, 122);"/>
			</g>
		</g>
	</g><path d="M 210.39999389648438 288.8999938964844 L 156.1999969482422 317.20001220703125 L 153.60000610351562 311.3999938964844 L 207.6999969482422 283.20001220703125 Z" class="st5" style="fill: rgb(39, 87, 122);" transform="matrix(1, 0, 0, 1, -5.684341886080802e-14, 0)"/><path d="M 221.1999969482422 296.29998779296875 L 161.10000610351562 327.70001220703125 L 158.39999389648438 321.8999938964844 L 218.5 290.6000061035156 Z" class="st5" style="fill: rgb(39, 87, 122);" transform="matrix(1, 0, 0, 1, -5.684341886080802e-14, 0)"/><path d="M 207.3000030517578 316.6000061035156 L 166 338.20001220703125 L 163.3000030517578 332.3999938964844 L 204.60000610351562 310.79998779296875 Z" class="st5" style="fill: rgb(39, 87, 122);" transform="matrix(1, 0, 0, 1, -5.684341886080802e-14, 0)"/><path d="M 276 254.6999969482422 L 225.39999389648438 281.1000061035156 L 222.6999969482422 275.29998779296875 L 273.29998779296875 248.89999389648438 Z" class="st5" style="fill: rgb(39, 87, 122);" transform="matrix(1, 0, 0, 1, -5.684341886080802e-14, 0)"/><path d="M 251.10000610351562 280.70001220703125 L 230.1999969482422 291.6000061035156 L 227.60000610351562 285.79998779296875 L 248.5 274.8999938964844 Z" class="st5" style="fill: rgb(39, 87, 122);" transform="matrix(1, 0, 0, 1, -5.684341886080802e-14, 0)"/><path d="M 281.8999938964844 277.70001220703125 L 235.10000610351562 302.1000061035156 L 232.39999389648438 296.29998779296875 L 279.20001220703125 271.8999938964844 Z" class="st5" style="fill: rgb(39, 87, 122);" transform="matrix(1, 0, 0, 1, -5.684341886080802e-14, 0)"/><path d="M 141.10000610351562 206.89999389648438 L 173.10000610351562 276.20001220703125 L 151.6999969482422 287.3999938964844 L 119.69999694824219 218 Z" transform="matrix(1, 0, 0, 1, -5.684341886080802e-14, 0)" style="opacity: 0.2;"/><path d="M 151.89999389648438 230.3000030517578 L 173.10000610351562 276.20001220703125 L 151.6999969482422 287.3999938964844 L 130.5 241.39999389648438 Z" class="st6" style="fill: rgb(241, 94, 34);" transform="matrix(1, 0, 0, 1, -5.684341886080802e-14, 0)"/><path d="M 165.8000030517578 185.6999969482422 L 200.89999389648438 261.70001220703125 L 179.5 272.8999938964844 L 144.39999389648438 196.89999389648438 Z" transform="matrix(1, 0, 0, 1, -5.684341886080802e-14, 0)" style="opacity: 0.2;"/><path d="M 184.89999389648438 227 L 200.89999389648438 261.70001220703125 L 179.5 272.8999938964844 L 163.5 238.1999969482422 Z" class="st5" style="fill: rgb(39, 87, 122);" transform="matrix(1, 0, 0, 1, -5.684341886080802e-14, 0)"/><path d="M 186.1999969482422 155.39999389648438 L 228.6999969482422 247.1999969482422 L 207.3000030517578 258.3999938964844 L 164.8000030517578 166.5 Z" transform="matrix(1, 0, 0, 1, -5.684341886080802e-14, 0)" style="opacity: 0.2;"/><path d="M 200.1999969482422 185.5 L 228.6999969482422 247.1999969482422 L 207.3000030517578 258.3999938964844 L 178.8000030517578 196.6999969482422 Z" class="st6" style="fill: rgb(241, 94, 34);" transform="matrix(1, 0, 0, 1, -5.684341886080802e-14, 0)"/><path d="M 221.3000030517578 156.8000030517578 L 256.3999938964844 232.6999969482422 L 235 243.89999389648438 L 199.89999389648438 167.89999389648438 Z" transform="matrix(1, 0, 0, 1, -5.684341886080802e-14, 0)" style="opacity: 0.2;"/><path d="M 240.39999389648438 198.10000610351562 L 256.3999938964844 232.6999969482422 L 235 243.89999389648438 L 219 209.1999969482422 Z" class="st5" style="fill: rgb(39, 87, 122);" transform="matrix(1, 0, 0, 1, -5.684341886080802e-14, 0)"/>
<path d="M 1298.4000244140625 213.6999969482422 L 1150.4000244140625 185.39999389648438 L 1095.800048828125 220.39999389648438 L 1095.5 220.39999389648438 L 1052 401.1000061035156 L 1244.4000244140625 437.79998779296875 Z" class="st3" style="fill: rgb(1, 1, 1); opacity: 0.1216;" transform="matrix(1, 0, 0, 1, -2.842170943040401e-14, 0)"/>
<g transform="matrix(1, 0, 0, 1, -2.842170943040401e-14, 0)">
		<g>
			<g>
				<path d="M 1083.699951171875 206.8000030517578 L 1040.0999755859375 387.5 L 1232.5 424.20001220703125 L 1286.5999755859375 200 L 1138.5999755859375 171.8000030517578 L 1119.5999755859375 202.3000030517578 Z" class="st4" style="fill: rgb(255, 255, 255);"/>
			</g>
		</g>
		<g>
			<g>
				<path d="M 1138.5999755859375 171.8000030517578 L 1128.0999755859375 215.3000030517578 L 1083.9000244140625 206.8000030517578 Z" class="st5" style="fill: rgb(39, 87, 122);"/>
			</g>
		</g>
	</g><path d="M 1139.9000244140625 359.1000061035156 L 1073 346.29998779296875 L 1074.5999755859375 339.3999938964844 L 1141.5999755859375 352.20001220703125 Z" class="st5" style="fill: rgb(39, 87, 122);" transform="matrix(1, 0, 0, 1, -5.684341886080802e-14, 0)"/><path d="M 1144.300048828125 373 L 1069.9000244140625 358.79998779296875 L 1071.5999755859375 351.8999938964844 L 1145.9000244140625 366.1000061035156 Z" class="st5" style="fill: rgb(39, 87, 122);" transform="matrix(1, 0, 0, 1, -5.684341886080802e-14, 0)"/><path d="M 1118.0999755859375 381.1000061035156 L 1066.9000244140625 371.3999938964844 L 1068.5999755859375 364.5 L 1119.699951171875 374.20001220703125 Z" class="st5" style="fill: rgb(39, 87, 122);" transform="matrix(1, 0, 0, 1, -5.684341886080802e-14, 0)"/><path d="M 1221 374.5 L 1158.5 362.6000061035156 L 1160.0999755859375 355.70001220703125 L 1222.699951171875 367.6000061035156 Z" class="st5" style="fill: rgb(39, 87, 122);" transform="matrix(1, 0, 0, 1, -5.684341886080802e-14, 0)"/><path d="M 1181.300048828125 380.1000061035156 L 1155.4000244140625 375.1000061035156 L 1157.0999755859375 368.20001220703125 L 1182.9000244140625 373.20001220703125 Z" class="st5" style="fill: rgb(39, 87, 122);" transform="matrix(1, 0, 0, 1, -5.684341886080802e-14, 0)"/><path d="M 1210.300048828125 398.70001220703125 L 1152.4000244140625 387.70001220703125 L 1154.0999755859375 380.79998779296875 L 1212 391.79998779296875 Z" class="st5" style="fill: rgb(39, 87, 122);" transform="matrix(1, 0, 0, 1, -5.684341886080802e-14, 0)"/><path d="M 1136.0999755859375 239.1999969482422 L 1116.0999755859375 322.1000061035156 L 1089.699951171875 317 L 1109.699951171875 234.1999969482422 Z" transform="matrix(1, 0, 0, 1, -5.684341886080802e-14, 0)" style="opacity: 0.2;"/><path d="M 1129.4000244140625 267.20001220703125 L 1116.0999755859375 322.1000061035156 L 1089.699951171875 317 L 1102.9000244140625 262.20001220703125 Z" class="st6" style="fill: rgb(241, 94, 34);" transform="matrix(1, 0, 0, 1, -5.684341886080802e-14, 0)"/><path d="M 1172.4000244140625 237.89999389648438 L 1150.5 328.6000061035156 L 1124 323.6000061035156 L 1145.9000244140625 232.8000030517578 Z" transform="matrix(1, 0, 0, 1, -5.684341886080802e-14, 0)" style="opacity: 0.2;"/><path d="M 1160.5 287.20001220703125 L 1150.5 328.70001220703125 L 1124 323.6000061035156 L 1134 282.20001220703125 Z" class="st5" style="fill: rgb(39, 87, 122);" transform="matrix(1, 0, 0, 1, -5.684341886080802e-14, 0)"/><path d="M 1211.300048828125 225.39999389648438 L 1184.800048828125 335.20001220703125 L 1158.4000244140625 330.20001220703125 L 1184.9000244140625 220.39999389648438 Z" transform="matrix(1, 0, 0, 1, -5.684341886080802e-14, 0)" style="opacity: 0.2;"/><path d="M 1202.5999755859375 261.5 L 1184.800048828125 335.20001220703125 L 1158.4000244140625 330.20001220703125 L 1176.199951171875 256.3999938964844 Z" class="st6" style="fill: rgb(241, 94, 34);" transform="matrix(1, 0, 0, 1, -5.684341886080802e-14, 0)"/><path d="M 1241.0999755859375 251 L 1219.199951171875 341.79998779296875 L 1192.699951171875 336.70001220703125 L 1214.5999755859375 245.89999389648438 Z" transform="matrix(1, 0, 0, 1, -5.684341886080802e-14, 0)" style="opacity: 0.2;"/><path d="M 1229.0999755859375 300.29998779296875 L 1219.199951171875 341.79998779296875 L 1192.699951171875 336.70001220703125 L 1202.699951171875 295.29998779296875 Z" class="st5" style="fill: rgb(39, 87, 122);" transform="matrix(1, 0, 0, 1, -5.684341886080802e-14, 0)"/>
<g transform="matrix(1, 0, 0, 1, -2.842170943040401e-14, 0)">
		<path class="st8" d="M142.9,759.9c2.4,11.8,13.9,19.4,25.7,17L305,749c11.8-2.4,19.4-13.9,17-25.7l-38.9-190.4&#10;&#9;&#9;&#9;c-2.4-11.8-13.9-19.4-25.7-17l-136.3,27.8c-11.8,2.4-19.4,13.9-17,25.7L142.9,759.9z" style="fill: rgb(48, 61, 80);"/>
	</g>
<g transform="matrix(1, 0, 0, 1, -2.842170943040401e-14, 0)">
		<path d="M 252.60000610351562 623 L 280 617.4000244140625 L 274.3999938964844 590 L 247 595.5999755859375 Z" class="st4" style="fill: rgb(255, 255, 255);"/>
	</g>
<g transform="matrix(1, 0, 0, 1, -2.842170943040401e-14, 0)">
		
			<path d="M 212 600.200012 H 239.9 V 628.100012 H 212 V 600.200012 Z" transform="matrix(-0.9798 0.2001 -0.2001 -0.9798 570.2681 1170.7208)" class="st4" style="fill: rgb(255, 255, 255);"/>
	</g>
<g transform="matrix(1, 0, 0, 1, -2.842170943040401e-14, 0)">
		<path d="M 177.60000610351562 638.2999877929688 L 204.89999389648438 632.7000122070312 L 199.39999389648438 605.4000244140625 L 172 610.9000244140625 Z" class="st4" style="fill: rgb(255, 255, 255);"/>
	</g>
<g transform="matrix(1, 0, 0, 1, -2.842170943040401e-14, 0)">
		<path d="M 140.10000610351562 646 L 167.39999389648438 640.4000244140625 L 161.8000030517578 613 L 134.5 618.5999755859375 Z" class="st4" style="fill: rgb(255, 255, 255);"/>
	</g>
<g transform="matrix(1, 0, 0, 1, -2.842170943040401e-14, 0)">
		<path d="M 260.20001220703125 660.0999755859375 L 287.5 654.5 L 282 627.2000122070312 L 254.60000610351562 632.7000122070312 Z" class="st4" style="fill: rgb(255, 255, 255);"/>
	</g>
<g transform="matrix(1, 0, 0, 1, -2.842170943040401e-14, 0)">
		<path d="M 222.6999969482422 667.7999877929688 L 250 662.2000122070312 L 244.39999389648438 634.7999877929688 L 217.10000610351562 640.4000244140625 Z" class="st4" style="fill: rgb(255, 255, 255);"/>
	</g>
<g transform="matrix(1, 0, 0, 1, -2.842170943040401e-14, 0)">
		
			<path d="M 182.100006 645 H 210.000006 V 672.9 H 182.100006 V 645 Z" transform="matrix(-0.9798 0.2 -0.2 -0.9798 519.921 1265.3584)" class="st4" style="fill: rgb(255, 255, 255);"/>
	</g>
<g transform="matrix(1, 0, 0, 1, -2.842170943040401e-14, 0)">
		
			<path d="M 264.700012 666.799988 H 292.600012 V 694.699987 H 264.700012 V 666.799988 Z" transform="matrix(-0.9798 0.2001 -0.2001 -0.9798 687.8719 1291.9512)" class="st4" style="fill: rgb(255, 255, 255);"/>
	</g>
<g transform="matrix(1, 0, 0, 1, -2.842170943040401e-14, 0)">
		
			<path d="M 227.199997 674.400024 H 255.099997 V 702.300024 H 227.199997 V 674.400024 Z" transform="matrix(-0.9798 0.1999 -0.1999 -0.9798 615.0374 1314.6713)" class="st4" style="fill: rgb(255, 255, 255);"/>
	</g>
<g transform="matrix(1, 0, 0, 1, -2.842170943040401e-14, 0)">
		<path d="M 192.6999969482422 712.5 L 220.10000610351562 706.9000244140625 L 214.5 679.5999755859375 L 187.10000610351562 685.2000122070312 Z" class="st4" style="fill: rgb(255, 255, 255);"/>
	</g>
<g transform="matrix(1, 0, 0, 1, -2.842170943040401e-14, 0)">
		
			<path d="M 126.300003 553.5 H 269.100006 V 589.200001 H 126.300003 V 553.5 Z" transform="matrix(-0.9798 0.2 -0.2 -0.9798 505.7157 1091.7297)" class="st1" style="fill: rgb(240, 240, 239);"/>
	</g>
<g transform="matrix(1, 0, 0, 1, -2.842170943040401e-14, 0)">
		<path d="M 264.100006 539.599976 L 124.199997 568.200012 L 131.300003 603.200012" class="st4" style="fill: rgb(255, 255, 255);"/>
	</g>
<path d="M 182.60000610351562 714.5999755859375 L 173.6999969482422 670.9000244140625 L 173.6999969482422 670.9000244140625 L 169.39999389648438 650.0999755859375 L 142.10000610351562 655.7000122070312 L 147.60000610351562 683.0999755859375 L 147.6999969482422 683.0999755859375 L 155.1999969482422 720.2000122070312 Z" class="st4" style="fill: rgb(255, 255, 255);" transform="matrix(1, 0, 0, 1, -2.842170943040401e-14, 0)"/>
<g transform="matrix(1, 0, 0, 1, -2.842170943040401e-14, 0)">
		
			<path d="M 272.299988 703.900024 H 300.199987 V 731.800024 H 272.299988 V 703.900024 Z" transform="matrix(-0.9798 0.2001 -0.2001 -0.9798 710.2962 1363.9043)" class="st4" style="fill: rgb(255, 255, 255);"/>
	</g>
<g transform="matrix(1, 0, 0, 1, -2.842170943040401e-14, 0)">
		<path d="M 237.8000030517578 742 L 265.20001220703125 736.4000244140625 L 259.6000061035156 709 L 232.1999969482422 714.5999755859375 Z" class="st4" style="fill: rgb(255, 255, 255);"/>
	</g>
<path d="M 227.6999969482422 744 L 222.10000610351562 716.7000122070312 L 170.89999389648438 727.0999755859375 L 170.89999389648438 727.0999755859375 L 157.1999969482422 729.9000244140625 L 162.8000030517578 757.2999877929688 L 176.5 754.5 L 176.5 754.5 Z" class="st4" style="fill: rgb(255, 255, 255);" transform="matrix(1, 0, 0, 1, -2.842170943040401e-14, 0)"/>
<path class="st3" d="M645.6,199.2l-13.3-34.6l-37.2,14.4l-4.2-10.9l-68,26.2c-14.9,5.7-22.3,22.5-16.5,37.3l1,2.6&#10;&#9;&#9;c5.7,14.9,22.5,22.3,37.3,16.5l68-26.2l-4.2-10.9L645.6,199.2z" style="fill: rgb(1, 1, 1); opacity: 0.12;" transform="matrix(1, 0, 0, 1, -2.842170943040401e-14, 0)"/>
<g transform="matrix(1, 0, 0, 1, -2.842170943040401e-14, 0)">
		<g>
			<path class="st8" d="M535.2,244.2c-14.9,5.7-31.6-1.7-37.3-16.5l-1-2.6c-5.7-14.9,1.7-31.6,16.5-37.3l68-26.2l21.8,56.4&#10;&#9;&#9;&#9;&#9;L535.2,244.2z" style="fill: rgb(48, 61, 80);"/>
		</g>
	</g><g transform="matrix(1, 0, 0, 1, -5.684341886080802e-14, 0)">
			<path d="M 585.5999755859375 172.5 L 598.9000244140625 207 L 636.0999755859375 192.6999969482422 L 622.7999877929688 158.10000610351562 Z" class="st4" style="fill: rgb(255, 255, 255);"/>
		</g><g transform="matrix(1, 0, 0, 1, -5.684341886080802e-14, 0)">
			<path d="M 607.5999755859375 189.1999969482422 L 609 192.8000030517578 L 619.0999755859375 189 L 617.7000122070312 185.3000030517578 Z" class="st10" style="fill: rgb(92, 111, 124);"/>
		</g><g transform="matrix(1, 0, 0, 1, -5.684341886080802e-14, 0)">
			<path d="M 602.5999755859375 176.1999969482422 L 604 179.8000030517578 L 614.0999755859375 176 L 612.7000122070312 172.3000030517578 Z" class="st10" style="fill: rgb(92, 111, 124);"/>
		</g><g transform="matrix(1, 0, 0, 1, -5.684341886080802e-14, 0)">
			<path class="st4" d="M522.5,207.6c-4.3,1.7-6.5,6.5-4.8,10.9c1.7,4.3,6.5,6.5,10.9,4.8c4.3-1.7,6.5-6.5,4.8-10.9&#10;&#9;&#9;&#9;&#9;C531.7,208.1,526.9,206,522.5,207.6z" style="fill: rgb(255, 255, 255);"/>
		</g>
<path class="st1" d="M986.3,592.8c0.1,0,7.2-0.7,12.6,4.1c4.4,3.9,6.6,10.5,6.6,19.7V980h12.6V616.7c0-13-3.6-22.8-10.8-29.2&#10;&#9;&#9;c-8.7-7.8-19.6-7.4-22-7.3h-69.6v12.6h69.9L986.3,592.8z" style="fill: rgb(240, 240, 239);" transform="matrix(1, 0, 0, 1, -2.842170943040401e-14, 0)"/>
<g transform="matrix(1, 0, 0, 1, -2.842170943040401e-14, 0)" style="opacity: 0.1216;">
		<path class="st3" d="M889.6,181.6C889.7,183,889.8,179,889.6,181.6L889.6,181.6z" style="fill: rgb(1, 1, 1);"/>
	</g><path class="st3" d="M907.4,180.4c-5.7,0-12.2,3-18.2,6.8c0.2-3,0.3-4.6,0.4-5.5c0-0.2,0-0.5,0-0.9c0-9.5-6-11.2-10.4-11.2&#10;&#9;&#9;&#9;l-22.1,0c-0.1-0.2-0.1-0.3-0.2-0.5c-0.6-1.1-1.3-1.6-1.4-1.7c-0.5-0.3-1.2-0.1-1.5,0.4c-0.3,0.5-0.1,1.2,0.4,1.5l0,0l0,0&#10;&#9;&#9;&#9;c0,0,0.1,0.1,0.2,0.2l-8.9,0c0,0-18.3,0-36.2,0l-33.6,0c-2.3,0-5.1,0.5-7.2,2.4c-1.8,1.7-3.1,4.4-3.2,8.8&#10;&#9;&#9;&#9;c0,17.7,7.7,113.4,10.3,116c2.6,2.6,6.7,0.2,9.9,3.5c3.2,3.2,3,6.5,3,6.5l77.6,0c0,0-0.2-3.2,3-6.5c2.8-2.8,6.2-1.4,8.7-2.6&#10;&#9;&#9;&#9;c0.4-0.2,0.8-0.5,1.2-0.8c0.6-0.6,2.4-27,3.3-34.1c11.9-3.5,24.6-13.4,24.6-13.4S934,228.9,934,207&#10;&#9;&#9;&#9;C934,192.4,923.8,180.4,907.4,180.4z M908,229.2c-5.6,6.2-12.4,11.2-19.7,15.4c-1.3,0.7-2.7,1.4-4,2.1c1.2-11.9,2.4-26.1,3.5-39.7&#10;&#9;&#9;&#9;c1.5-1.2,3-2.5,4.7-3.7c5.2-3.8,10.3-8.7,18.8-7.3c5.2,0.8,8,6.6,8.1,11.6C919.4,215.4,913,223.6,908,229.2z" style="fill: rgb(1, 1, 1); opacity: 0.1216;" transform="matrix(1, 0, 0, 1, -5.684341886080802e-14, 0)"/><path class="st3" d="M853.1,145c-0.3-0.3-7.1-7.5,0.4-17.4c9.8-13,3.8-23.1-0.8-26.7l-5.3,6.8c0.3,0.2,6.4,5.2-0.8,14.7&#10;&#9;&#9;&#9;c-9.6,12.6-3.9,24.3,0.4,28.7L853.1,145z" style="fill: rgb(1, 1, 1); opacity: 0.1216;" transform="matrix(1, 0, 0, 1, -5.684341886080802e-14, 0)"/><path class="st3" d="M807.8,145.1c-0.7-0.8-6.9-7.8,0.3-17.4c9.8-13,3.8-23.1-0.8-26.7l-5.4,6.8c1.1,0.9,6.1,5.7-0.7,14.7&#10;&#9;&#9;&#9;c-9.6,12.6-4,24.3,0.4,28.7L807.8,145.1z" style="fill: rgb(1, 1, 1); opacity: 0.1216;" transform="matrix(1, 0, 0, 1, -5.684341886080802e-14, 0)"/><path class="st3" d="M817.7,140.2c2.1,7.9,7.6,11.2,8.2,11.6l4.4-7.5c-0.4-0.3-10.9-7.1,1.2-27.2c15.6-26-3-38.9-3.2-39l-4.9,7.2&#10;&#9;&#9;&#9;c1.2,0.9,11.7,9,0.6,27.4C817.8,123.1,815.7,132.3,817.7,140.2z" style="fill: rgb(1, 1, 1); opacity: 0.1216;" transform="matrix(1, 0, 0, 1, -5.684341886080802e-14, 0)"/>
<path class="st1" d="M1159.9,644.8h-12.6l0.1-49.3c0.1-0.5,0-2.4-0.9-3.5c-1.1-1.2-3.6-1.4-5-1.4c-19.2,0-27.3-10-27.3-33.5&#10;&#9;&#9;c0-6.3-1.1-10.9-3-12.8c-1.7-1.7-4.4-1.8-8.5-1.8l-1,0H922.9v-12.6l179.5,0c4.8,0,12-0.1,17.5,5.4c4.5,4.5,6.8,11.6,6.8,21.8&#10;&#9;&#9;c0,19.8,5.6,20.8,14.7,20.8c7.9,0,12.3,3.2,14.6,5.8c4.2,4.9,4.1,11,3.9,13V644.8z" style="fill: rgb(240, 240, 239);" transform="matrix(1, 0, 0, 1, -2.842170943040401e-14, 0)"/>
<path class="st4" d="M1102.4,666.7c0-9.6,11.1-31,51.6-31c41.7,0,51.6,21.8,51.6,31c0,9.2,0,104.9,0,113.7&#10;&#9;&#9;c0,8.8-11.9,41.5-51.2,41.5c-41.7,0-52.8-30.2-52.8-40.5C1101.6,771.1,1102.4,676.3,1102.4,666.7z" style="fill: rgb(255, 255, 255);" transform="matrix(1, 0, 0, 1, -2.842170943040401e-14, 0)"/>
<path class="st11" d="M1159.5,676.1c-1.2-1.6-3.1-2.7-5.4-2.7s-4.2,1.2-5.4,2.7c-1.2,1.6-1.9,3.6-1.9,5.7v14.4&#10;&#9;&#9;c0,2.1,0.7,4.1,1.9,5.7c1.2,1.6,3.1,2.7,5.4,2.7c2.2,0,4.2-1.2,5.4-2.7c1.2-1.6,1.9-3.6,1.9-5.7v-14.4&#10;&#9;&#9;C1161.3,679.6,1160.7,677.6,1159.5,676.1z M1154.8,698.2c-0.4,0.4-0.6,0.5-0.7,0.5c-0.1,0-0.4,0-0.7-0.5c-0.3-0.4-0.6-1.2-0.6-2&#10;&#9;&#9;v-14.4c0-0.9,0.3-1.6,0.6-2c0.4-0.4,0.6-0.5,0.7-0.5s0.4,0,0.7,0.5c0.3,0.4,0.6,1.2,0.6,2v14.4&#10;&#9;&#9;C1155.4,697,1155.1,697.8,1154.8,698.2z" style="fill: rgb(152, 152, 152);" transform="matrix(1, 0, 0, 1, -2.842170943040401e-14, 0)"/>
<path class="st12" d="M1155.3,818.4c-48.6,0-51.2-35.7-51.3-37.3l0.2-74c7.1,29.9,26.1,79.5,74.4,79.5c7.7,0,16-1.3,24.6-3.8&#10;&#9;&#9;C1201.4,791.9,1193.1,818.4,1155.3,818.4z" style="fill: rgb(243, 243, 243);" transform="matrix(1, 0, 0, 1, -2.842170943040401e-14, 0)"/>
<path class="st8" d="M957.4,606.1c0,12.9-10.4,23.3-23.3,23.3H443.9c-12.9,0-23.3-10.4-23.3-23.3V384.5c0-12.9,10.4-23.3,23.3-23.3&#10;&#9;&#9;h490.2c12.9,0,23.3,10.4,23.3,23.3V606.1z" style="fill: rgb(48, 61, 80);" transform="matrix(1, 0, 0, 1, -2.842170943040401e-14, 0)"/>
<path class="st1" d="M939.7,592.4c0,11.3-9.7,20.4-21.8,20.4H460.1c-12,0-21.8-9.1-21.8-20.4V398.3c0-11.3,9.7-20.4,21.8-20.4&#10;&#9;&#9;h457.8c12,0,21.8,9.1,21.8,20.4V592.4z" style="fill: rgb(240, 240, 239);" transform="matrix(1, 0, 0, 1, -2.842170943040401e-14, 0)"/>
<path class="st4" d="M460.1,612.8c-12,0-21.8-9.1-21.8-20.4V398.3c0-11.3,9.7-20.4,21.8-20.4h457.8c12,0,21.8,9.1,21.8,20.4" style="fill: rgb(255, 255, 255);" transform="matrix(1, 0, 0, 1, -2.842170943040401e-14, 0)"/>
<g transform="matrix(1, 0, 0, 1, -2.842170943040401e-14, 0)" style="opacity: 0.2;">
		<g>
			<g>
				<path d="M 467.5 445.799988 H 851.899994 V 469.899988 H 467.5 V 445.799988 Z" class="st5" style="fill: rgb(39, 87, 122);"/>
			</g>
		</g>
	</g><g transform="matrix(1, 0, 0, 1, -5.684341886080802e-14, 0)" style="opacity: 0.2;">
			<g>
				<path d="M 467.5 481.100006 H 885.100006 V 495.100006 H 467.5 V 481.100006 Z" class="st5" style="fill: rgb(39, 87, 122);"/>
			</g>
		</g><g transform="matrix(1, 0, 0, 1, -5.684341886080802e-14, 0)" style="opacity: 0.2;">
			<g>
				<path d="M 467.5 506 H 806.399994 V 520 H 467.5 V 506 Z" class="st5" style="fill: rgb(39, 87, 122);"/>
			</g>
		</g><g transform="matrix(1, 0, 0, 1, -5.684341886080802e-14, 0)" style="opacity: 0.2;">
			<g>
				<path d="M 467.5 408.5 H 823.799988 V 422.5 H 467.5 V 408.5 Z" class="st5" style="fill: rgb(39, 87, 122);"/>
			</g>
		</g><g transform="matrix(1, 0, 0, 1, -5.684341886080802e-14, 0)" style="opacity: 0.2;">
			<g>
				<path d="M 467.5 539.400024 H 907.700012 V 553.400024 H 467.5 V 539.400024 Z" class="st5" style="fill: rgb(39, 87, 122);"/>
			</g>
		</g><g transform="matrix(1, 0, 0, 1, -5.684341886080802e-14, 0)" style="opacity: 0.2;">
			<g>
				<path d="M 467.5 564.299988 H 790.200012 V 578.299988 H 467.5 V 564.299988 Z" class="st5" style="fill: rgb(39, 87, 122);"/>
			</g>
		</g>
<path class="st4" d="M901.2,170.5c-5.7,0-12.2,3-18.2,6.8c0.9-13,0.4-1.7,0.4-6.5c0-9.5-6-11.2-10.4-11.2l-33.6,0&#10;&#9;&#9;c0,0-18.3,0-36.2,0l-33.6,0c-2.3,0-5.1,0.5-7.2,2.4c-1.8,1.7-3.1,4.4-3.2,8.8c0,17.7,7.7,113.4,10.3,116c2.6,2.6,6.7,0.2,9.9,3.5&#10;&#9;&#9;c3.2,3.2,3,6.5,3,6.5l77.6,0c0,0-0.2-3.2,3-6.5c2.8-2.8,6.2-1.4,8.7-2.6c0.4-0.2,0.8-0.5,1.2-0.8c0.6-0.6,2.4-27,3.3-34.1&#10;&#9;&#9;c11.9-3.5,24.6-13.4,24.6-13.4s26.8-20.3,26.8-42.2C927.8,182.5,917.6,170.5,901.2,170.5z M901.7,219.3&#10;&#9;&#9;c-5.6,6.2-12.4,11.2-19.7,15.4c-1.3,0.7-2.7,1.4-4,2.1c1.2-11.9,2.4-26.1,3.5-39.7c1.5-1.2,3-2.5,4.7-3.7&#10;&#9;&#9;c5.2-3.8,10.3-8.7,18.8-7.3c5.2,0.8,8,6.6,8.1,11.6C913.1,205.5,906.8,213.7,901.7,219.3z" style="fill: rgb(255, 255, 255);" transform="matrix(1, 0, 0, 1, -2.842170943040401e-14, 0)"/>
<path class="st14" d="M762.3,162c-1.8,1.7-3.1,4.4-3.2,8.8c0,17.7,7.7,113.4,10.3,116c2.6,2.6,6.7,0.2,9.9,3.5c3.2,3.2,3,6.5,3,6.5&#10;&#9;&#9;l77.6,0c0,0-0.2-3.2,3-6.5c2.8-2.8,6.2-1.4,8.7-2.6l-27,0L762.3,162z" style="fill: rgb(17, 146, 153); opacity: 0.1;" transform="matrix(1, 0, 0, 1, -2.842170943040401e-14, 0)"/>
<path class="st5" d="M848.1,159.4l0.3-0.6L848.1,159.4L848.1,159.4l0.3-0.6L848.1,159.4L848.1,159.4c0,0.1,1.5,1.1,1.5,5.3&#10;&#9;&#9;c0,5.1,0,31.2,0,31.2c0,0.6,0.5,1.1,1.1,1.1c0.6,0,1.1-0.5,1.1-1.1c0,0,0-26.1,0-31.2c0-2.7-0.5-4.5-1.2-5.6&#10;&#9;&#9;c-0.6-1.1-1.3-1.6-1.4-1.7c-0.5-0.3-1.2-0.1-1.5,0.4C847.4,158.4,847.6,159.1,848.1,159.4z" style="fill: rgb(39, 87, 122);" transform="matrix(1, 0, 0, 1, -2.842170943040401e-14, 0)"/>
<path class="st8" d="M836.7,185.4c0-3.1,28.1-3,28.1,0c0,3.1,0,24.4,0,29.3c0,4.9-28.1,4.6-28.1,0&#10;&#9;&#9;C836.7,210.1,836.7,188.4,836.7,185.4z" style="fill: rgb(48, 61, 80);" transform="matrix(1, 0, 0, 1, -2.842170943040401e-14, 0)"/>
<g transform="matrix(1, 0, 0, 1, -2.842170943040401e-14, 0)">
		<g>
			<g>
				<path class="st4" d="M842.5,147.2c-4.3-4.4-9.9-16-0.4-28.7c7.2-9.5,1-14.4,0.8-14.7l5.3-6.8c4.6,3.6,10.6,13.7,0.8,26.7&#10;&#9;&#9;&#9;&#9;&#9;c-7.5,9.9-0.7,17.1-0.4,17.4L842.5,147.2z" style="fill: rgb(255, 255, 255);"/>
			</g>
		</g>
		<g>
			<g>
				<path class="st4" d="M797.2,147.2c-4.3-4.4-9.9-16-0.4-28.7c6.8-8.9,1.8-13.8,0.7-14.7l5.4-6.8c4.6,3.6,10.6,13.7,0.8,26.7&#10;&#9;&#9;&#9;&#9;&#9;c-7.3,9.6-1.1,16.7-0.3,17.4L797.2,147.2z" style="fill: rgb(255, 255, 255);"/>
			</g>
		</g>
		<g>
			<g>
				<path class="st4" d="M821.5,148c-0.6-0.4-6.1-3.7-8.2-11.6c-2-7.8,0.1-17.1,6.4-27.5c11.1-18.4,0.6-26.5-0.6-27.4l4.9-7.2&#10;&#9;&#9;&#9;&#9;&#9;c0.2,0.1,18.8,13,3.2,39c-12.1,20.2-1.7,27-1.2,27.2L821.5,148z" style="fill: rgb(255, 255, 255);"/>
			</g>
		</g>
	</g>
<path class="st4" d="M915.7,820.8c0,8.7-7.1,15.8-15.8,15.8H470.4c-8.7,0-15.8-7.1-15.8-15.8V692.1c0-8.7,7.1-15.8,15.8-15.8h429.6&#10;&#9;&#9;c8.7,0,15.8,7.1,15.8,15.8V820.8z" style="fill: rgb(255, 255, 255);" transform="matrix(1, 0, 0, 1, -2.842170943040401e-14, 0)"/>
<g transform="matrix(1, 0, 0, 1, -2.842170943040401e-14, 0)">
		<path d="M 883.2000122070312 980 L 935.7000122070312 954.2000122070312 L 912.5999755859375 907.0999755859375 L 812.7000122070312 956.2999877929688 L 824.4000244140625 980 Z" class="st15" style="fill: rgb(240, 238, 238);"/>
	</g>
<g transform="matrix(1, 0, 0, 1, -2.842170943040401e-14, 0)">
		<path d="M 953 980 L 925.0999755859375 923 L 817.5999755859375 976 L 819.4000244140625 980 Z" class="st16" style="fill: rgb(241, 106, 48);"/>
	</g>
<path class="st12" d="M716.1,827.2H543c-0.6,0-1-0.5-1-1v-25.6c0-0.6,0.5-1,1-1h173.1c0.6,0,1,0.5,1,1v25.6&#10;&#9;&#9;C717.1,826.7,716.7,827.2,716.1,827.2z" style="fill: rgb(243, 243, 243);" transform="matrix(1, 0, 0, 1, -2.842170943040401e-14, 0)"/>
<path class="st17" d="M716.1,800.5v25.6H543v-25.6H716.1 M716.1,798.5H543c-1.1,0-2,0.9-2,2v25.6c0,1.1,0.9,2,2,2h173.1&#10;&#9;&#9;c1.1,0,2-0.9,2-2v-25.6C718.1,799.4,717.2,798.5,716.1,798.5z" style="fill: rgb(230, 230, 229);" transform="matrix(1, 0, 0, 1, -2.842170943040401e-14, 0)"/>
<path class="st12" d="M497.1,717.8h-25.6c-0.6,0-1-0.5-1-1v-25.6c0-0.6,0.5-1,1-1h25.6c0.6,0,1,0.5,1,1v25.6&#10;&#9;&#9;C498.1,717.4,497.6,717.8,497.1,717.8z" style="fill: rgb(243, 243, 243);" transform="matrix(1, 0, 0, 1, -2.842170943040401e-14, 0)"/>
<path class="st17" d="M497.1,691.2v25.6h-25.6v-25.6H497.1 M497.1,689.2h-25.6c-1.1,0-2,0.9-2,2v25.6c0,1.1,0.9,2,2,2h25.6&#10;&#9;&#9;c1.1,0,2-0.9,2-2v-25.6C499.1,690.1,498.2,689.2,497.1,689.2z" style="fill: rgb(230, 230, 229);" transform="matrix(1, 0, 0, 1, -2.842170943040401e-14, 0)"/>
<path class="st12" d="M533.6,717.8h-25.6c-0.5,0-1-0.5-1-1v-25.6c0-0.6,0.5-1,1-1h25.6c0.6,0,1,0.5,1,1v25.6&#10;&#9;&#9;C534.6,717.4,534.2,717.8,533.6,717.8z" style="fill: rgb(243, 243, 243);" transform="matrix(1, 0, 0, 1, -2.842170943040401e-14, 0)"/>
<path class="st17" d="M533.6,691.2v25.6h-25.6v-25.6H533.6 M533.6,689.2h-25.6c-1.1,0-2,0.9-2,2v25.6c0,1.1,0.9,2,2,2h25.6&#10;&#9;&#9;c1.1,0,2-0.9,2-2v-25.6C535.6,690.1,534.7,689.2,533.6,689.2z" style="fill: rgb(230, 230, 229);" transform="matrix(1, 0, 0, 1, -2.842170943040401e-14, 0)"/>
<path class="st12" d="M570.1,717.8h-25.6c-0.6,0-1-0.5-1-1v-25.6c0-0.6,0.5-1,1-1h25.6c0.6,0,1,0.5,1,1v25.6&#10;&#9;&#9;C571.1,717.4,570.7,717.8,570.1,717.8z" style="fill: rgb(243, 243, 243);" transform="matrix(1, 0, 0, 1, -2.842170943040401e-14, 0)"/>
<path class="st17" d="M570.1,691.2v25.6h-25.6v-25.6H570.1 M570.1,689.2h-25.6c-1.1,0-2,0.9-2,2v25.6c0,1.1,0.9,2,2,2h25.6&#10;&#9;&#9;c1.1,0,2-0.9,2-2v-25.6C572.1,690.1,571.2,689.2,570.1,689.2z" style="fill: rgb(230, 230, 229);" transform="matrix(1, 0, 0, 1, -2.842170943040401e-14, 0)"/>
<path class="st12" d="M606.6,717.8H581c-0.6,0-1-0.5-1-1v-25.6c0-0.6,0.5-1,1-1h25.6c0.6,0,1,0.5,1,1v25.6&#10;&#9;&#9;C607.6,717.4,607.2,717.8,606.6,717.8z" style="fill: rgb(243, 243, 243);" transform="matrix(1, 0, 0, 1, -2.842170943040401e-14, 0)"/>
<path class="st17" d="M606.6,691.2v25.6H581v-25.6H606.6 M606.6,689.2H581c-1.1,0-2,0.9-2,2v25.6c0,1.1,0.9,2,2,2h25.6&#10;&#9;&#9;c1.1,0,2-0.9,2-2v-25.6C608.6,690.1,607.7,689.2,606.6,689.2z" style="fill: rgb(230, 230, 229);" transform="matrix(1, 0, 0, 1, -2.842170943040401e-14, 0)"/>
<path class="st12" d="M643.1,717.8h-25.6c-0.6,0-1-0.5-1-1v-25.6c0-0.6,0.5-1,1-1h25.6c0.6,0,1,0.5,1,1v25.6&#10;&#9;&#9;C644.1,717.4,643.7,717.8,643.1,717.8z" style="fill: rgb(243, 243, 243);" transform="matrix(1, 0, 0, 1, -2.842170943040401e-14, 0)"/>
<path class="st17" d="M643.1,691.2v25.6h-25.6v-25.6H643.1 M643.1,689.2h-25.6c-1.1,0-2,0.9-2,2v25.6c0,1.1,0.9,2,2,2h25.6&#10;&#9;&#9;c1.1,0,2-0.9,2-2v-25.6C645.1,690.1,644.2,689.2,643.1,689.2z" style="fill: rgb(230, 230, 229);" transform="matrix(1, 0, 0, 1, -2.842170943040401e-14, 0)"/>
<path class="st12" d="M679.6,717.8H654c-0.6,0-1-0.5-1-1v-25.6c0-0.6,0.5-1,1-1h25.6c0.6,0,1,0.5,1,1v25.6&#10;&#9;&#9;C680.6,717.4,680.2,717.8,679.6,717.8z" style="fill: rgb(243, 243, 243);" transform="matrix(1, 0, 0, 1, -2.842170943040401e-14, 0)"/>
<path class="st17" d="M679.6,691.2v25.6H654v-25.6H679.6 M679.6,689.2H654c-1.1,0-2,0.9-2,2v25.6c0,1.1,0.9,2,2,2h25.6&#10;&#9;&#9;c1.1,0,2-0.9,2-2v-25.6C681.6,690.1,680.7,689.2,679.6,689.2z" style="fill: rgb(230, 230, 229);" transform="matrix(1, 0, 0, 1, -2.842170943040401e-14, 0)"/>
<path class="st12" d="M716.1,717.8h-25.6c-0.6,0-1-0.5-1-1v-25.6c0-0.6,0.5-1,1-1h25.6c0.6,0,1,0.5,1,1v25.6&#10;&#9;&#9;C717.1,717.4,716.7,717.8,716.1,717.8z" style="fill: rgb(243, 243, 243);" transform="matrix(1, 0, 0, 1, -2.842170943040401e-14, 0)"/>
<path class="st17" d="M716.1,691.2v25.6h-25.6v-25.6H716.1 M716.1,689.2h-25.6c-1.1,0-2,0.9-2,2v25.6c0,1.1,0.9,2,2,2h25.6&#10;&#9;&#9;c1.1,0,2-0.9,2-2v-25.6C718.1,690.1,717.2,689.2,716.1,689.2z" style="fill: rgb(230, 230, 229);" transform="matrix(1, 0, 0, 1, -2.842170943040401e-14, 0)"/>
<path class="st12" d="M752.6,717.8H727c-0.6,0-1-0.5-1-1v-25.6c0-0.6,0.5-1,1-1h25.7c0.6,0,1,0.5,1,1v25.6&#10;&#9;&#9;C753.6,717.4,753.2,717.8,752.6,717.8z" style="fill: rgb(243, 243, 243);" transform="matrix(1, 0, 0, 1, -2.842170943040401e-14, 0)"/>
<path class="st17" d="M752.6,691.2v25.6H727v-25.6H752.6 M752.6,689.2H727c-1.1,0-2,0.9-2,2v25.6c0,1.1,0.9,2,2,2h25.6&#10;&#9;&#9;c1.1,0,2-0.9,2-2v-25.6C754.6,690.1,753.7,689.2,752.6,689.2z" style="fill: rgb(230, 230, 229);" transform="matrix(1, 0, 0, 1, -2.842170943040401e-14, 0)"/>
<path class="st12" d="M789.1,717.8h-25.6c-0.6,0-1-0.5-1-1v-25.6c0-0.6,0.5-1,1-1h25.6c0.6,0,1,0.5,1,1v25.6&#10;&#9;&#9;C790.1,717.4,789.7,717.8,789.1,717.8z" style="fill: rgb(243, 243, 243);" transform="matrix(1, 0, 0, 1, -2.842170943040401e-14, 0)"/>
<path class="st17" d="M789.1,691.2v25.6h-25.6v-25.6H789.1 M789.1,689.2h-25.6c-1.1,0-2,0.9-2,2v25.6c0,1.1,0.9,2,2,2h25.6&#10;&#9;&#9;c1.1,0,2-0.9,2-2v-25.6C791.1,690.1,790.2,689.2,789.1,689.2z" style="fill: rgb(230, 230, 229);" transform="matrix(1, 0, 0, 1, -2.842170943040401e-14, 0)"/>
<path class="st12" d="M825.6,717.8H800c-0.6,0-1-0.5-1-1v-25.6c0-0.6,0.5-1,1-1h25.6c0.6,0,1,0.5,1,1v25.6&#10;&#9;&#9;C826.6,717.4,826.2,717.8,825.6,717.8z" style="fill: rgb(243, 243, 243);" transform="matrix(1, 0, 0, 1, -2.842170943040401e-14, 0)"/>
<path class="st17" d="M825.6,691.2v25.6H800v-25.6H825.6 M825.6,689.2H800c-1.1,0-2,0.9-2,2v25.6c0,1.1,0.9,2,2,2h25.6&#10;&#9;&#9;c1.1,0,2-0.9,2-2v-25.6C827.6,690.1,826.7,689.2,825.6,689.2z" style="fill: rgb(230, 230, 229);" transform="matrix(1, 0, 0, 1, -2.842170943040401e-14, 0)"/>
<path class="st12" d="M862.1,717.8h-25.6c-0.6,0-1-0.5-1-1v-25.6c0-0.6,0.5-1,1-1h25.6c0.6,0,1,0.5,1,1v25.6&#10;&#9;&#9;C863.1,717.4,862.7,717.8,862.1,717.8z" style="fill: rgb(243, 243, 243);" transform="matrix(1, 0, 0, 1, -2.842170943040401e-14, 0)"/>
<path class="st17" d="M862.1,691.2v25.6h-25.6v-25.6H862.1 M862.1,689.2h-25.6c-1.1,0-2,0.9-2,2v25.6c0,1.1,0.9,2,2,2h25.6&#10;&#9;&#9;c1.1,0,2-0.9,2-2v-25.6C864.1,690.1,863.2,689.2,862.1,689.2z" style="fill: rgb(230, 230, 229);" transform="matrix(1, 0, 0, 1, -2.842170943040401e-14, 0)"/>
<path class="st12" d="M898.6,717.8H873c-0.6,0-1-0.5-1-1v-25.6c0-0.6,0.5-1,1-1h25.6c0.6,0,1,0.5,1,1v25.6&#10;&#9;&#9;C899.6,717.4,899.2,717.8,898.6,717.8z" style="fill: rgb(243, 243, 243);" transform="matrix(1, 0, 0, 1, -2.842170943040401e-14, 0)"/>
<path class="st17" d="M898.6,691.2v25.6H873v-25.6H898.6 M898.6,689.2H873c-1.1,0-2,0.9-2,2v25.6c0,1.1,0.9,2,2,2h25.6&#10;&#9;&#9;c1.1,0,2-0.9,2-2v-25.6C900.6,690.1,899.7,689.2,898.6,689.2z" style="fill: rgb(230, 230, 229);" transform="matrix(1, 0, 0, 1, -2.842170943040401e-14, 0)"/>
<path class="st12" d="M570.1,755.6h-25.6c-0.6,0-1-0.5-1-1V729c0-0.6,0.5-1,1-1h25.6c0.6,0,1,0.5,1,1v25.6&#10;&#9;&#9;C571.1,755.2,570.7,755.6,570.1,755.6z" style="fill: rgb(243, 243, 243);" transform="matrix(1, 0, 0, 1, -2.842170943040401e-14, 0)"/>
<path class="st17" d="M570.1,729v25.6h-25.6V729H570.1 M570.1,726.9h-25.6c-1.1,0-2,0.9-2,2v25.6c0,1.1,0.9,2,2,2h25.6&#10;&#9;&#9;c1.1,0,2-0.9,2-2V729C572.1,727.9,571.2,726.9,570.1,726.9z" style="fill: rgb(230, 230, 229);" transform="matrix(1, 0, 0, 1, -2.842170943040401e-14, 0)"/>
<path class="st12" d="M606.6,755.6H581c-0.6,0-1-0.5-1-1V729c0-0.6,0.5-1,1-1h25.6c0.6,0,1,0.5,1,1v25.6&#10;&#9;&#9;C607.6,755.2,607.2,755.6,606.6,755.6z" style="fill: rgb(243, 243, 243);" transform="matrix(1, 0, 0, 1, -2.842170943040401e-14, 0)"/>
<path class="st17" d="M606.6,729v25.6H581V729H606.6 M606.6,726.9H581c-1.1,0-2,0.9-2,2v25.6c0,1.1,0.9,2,2,2h25.6c1.1,0,2-0.9,2-2&#10;&#9;&#9;V729C608.6,727.9,607.7,726.9,606.6,726.9z" style="fill: rgb(230, 230, 229);" transform="matrix(1, 0, 0, 1, -2.842170943040401e-14, 0)"/>
<path class="st12" d="M643.1,755.6h-25.6c-0.6,0-1-0.5-1-1V729c0-0.6,0.5-1,1-1h25.6c0.6,0,1,0.5,1,1v25.6&#10;&#9;&#9;C644.1,755.2,643.7,755.6,643.1,755.6z" style="fill: rgb(243, 243, 243);" transform="matrix(1, 0, 0, 1, -2.842170943040401e-14, 0)"/>
<path class="st17" d="M643.1,729v25.6h-25.6V729H643.1 M643.1,726.9h-25.6c-1.1,0-2,0.9-2,2v25.6c0,1.1,0.9,2,2,2h25.6&#10;&#9;&#9;c1.1,0,2-0.9,2-2V729C645.1,727.9,644.2,726.9,643.1,726.9z" style="fill: rgb(230, 230, 229);" transform="matrix(1, 0, 0, 1, -2.842170943040401e-14, 0)"/>
<path class="st12" d="M679.6,755.6H654c-0.6,0-1-0.5-1-1V729c0-0.6,0.5-1,1-1h25.6c0.6,0,1,0.5,1,1v25.6&#10;&#9;&#9;C680.6,755.2,680.2,755.6,679.6,755.6z" style="fill: rgb(243, 243, 243);" transform="matrix(1, 0, 0, 1, -2.842170943040401e-14, 0)"/>
<path class="st17" d="M679.6,729v25.6H654V729H679.6 M679.6,726.9H654c-1.1,0-2,0.9-2,2v25.6c0,1.1,0.9,2,2,2h25.6c1.1,0,2-0.9,2-2&#10;&#9;&#9;V729C681.6,727.9,680.7,726.9,679.6,726.9z" style="fill: rgb(230, 230, 229);" transform="matrix(1, 0, 0, 1, -2.842170943040401e-14, 0)"/>
<path class="st12" d="M716.1,755.6h-25.6c-0.6,0-1-0.5-1-1V729c0-0.6,0.5-1,1-1h25.6c0.6,0,1,0.5,1,1v25.6&#10;&#9;&#9;C717.1,755.2,716.7,755.6,716.1,755.6z" style="fill: rgb(243, 243, 243);" transform="matrix(1, 0, 0, 1, -2.842170943040401e-14, 0)"/>
<path class="st17" d="M716.1,729v25.6h-25.6V729H716.1 M716.1,726.9h-25.6c-1.1,0-2,0.9-2,2v25.6c0,1.1,0.9,2,2,2h25.6&#10;&#9;&#9;c1.1,0,2-0.9,2-2V729C718.1,727.9,717.2,726.9,716.1,726.9z" style="fill: rgb(230, 230, 229);" transform="matrix(1, 0, 0, 1, -2.842170943040401e-14, 0)"/>
<path class="st12" d="M752.6,755.6H727c-0.6,0-1-0.5-1-1V729c0-0.6,0.5-1,1-1h25.7c0.6,0,1,0.5,1,1v25.6&#10;&#9;&#9;C753.6,755.2,753.2,755.6,752.6,755.6z" style="fill: rgb(243, 243, 243);" transform="matrix(1, 0, 0, 1, -2.842170943040401e-14, 0)"/>
<path class="st17" d="M752.6,729v25.6H727V729H752.6 M752.6,726.9H727c-1.1,0-2,0.9-2,2v25.6c0,1.1,0.9,2,2,2h25.6c1.1,0,2-0.9,2-2&#10;&#9;&#9;V729C754.6,727.9,753.7,726.9,752.6,726.9z" style="fill: rgb(230, 230, 229);" transform="matrix(1, 0, 0, 1, -2.842170943040401e-14, 0)"/>
<path class="st12" d="M789.1,755.6h-25.6c-0.6,0-1-0.5-1-1V729c0-0.6,0.5-1,1-1h25.6c0.6,0,1,0.5,1,1v25.6&#10;&#9;&#9;C790.1,755.2,789.7,755.6,789.1,755.6z" style="fill: rgb(243, 243, 243);" transform="matrix(1, 0, 0, 1, -2.842170943040401e-14, 0)"/>
<path class="st17" d="M789.1,729v25.6h-25.6V729H789.1 M789.1,726.9h-25.6c-1.1,0-2,0.9-2,2v25.6c0,1.1,0.9,2,2,2h25.6&#10;&#9;&#9;c1.1,0,2-0.9,2-2V729C791.1,727.9,790.2,726.9,789.1,726.9z" style="fill: rgb(230, 230, 229);" transform="matrix(1, 0, 0, 1, -2.842170943040401e-14, 0)"/>
<path class="st12" d="M825.6,755.6H800c-0.6,0-1-0.5-1-1V729c0-0.6,0.5-1,1-1h25.7c0.6,0,1,0.5,1,1v25.6&#10;&#9;&#9;C826.6,755.2,826.2,755.6,825.6,755.6z" style="fill: rgb(243, 243, 243);" transform="matrix(1, 0, 0, 1, -2.842170943040401e-14, 0)"/>
<path class="st17" d="M825.6,729v25.6H800V729H825.6 M825.6,726.9H800c-1.1,0-2,0.9-2,2v25.6c0,1.1,0.9,2,2,2h25.6c1.1,0,2-0.9,2-2&#10;&#9;&#9;V729C827.6,727.9,826.7,726.9,825.6,726.9z" style="fill: rgb(230, 230, 229);" transform="matrix(1, 0, 0, 1, -2.842170943040401e-14, 0)"/>
<path class="st12" d="M862.1,755.6h-25.6c-0.6,0-1-0.5-1-1V729c0-0.6,0.5-1,1-1h25.6c0.6,0,1,0.5,1,1v25.6&#10;&#9;&#9;C863.1,755.2,862.7,755.6,862.1,755.6z" style="fill: rgb(243, 243, 243);" transform="matrix(1, 0, 0, 1, -2.842170943040401e-14, 0)"/>
<path class="st17" d="M862.1,729v25.6h-25.6V729H862.1 M862.1,726.9h-25.6c-1.1,0-2,0.9-2,2v25.6c0,1.1,0.9,2,2,2h25.6&#10;&#9;&#9;c1.1,0,2-0.9,2-2V729C864.1,727.9,863.2,726.9,862.1,726.9z" style="fill: rgb(230, 230, 229);" transform="matrix(1, 0, 0, 1, -2.842170943040401e-14, 0)"/>
<path class="st12" d="M898.6,755.6H873c-0.6,0-1-0.5-1-1V729c0-0.6,0.5-1,1-1h25.6c0.6,0,1,0.5,1,1v25.6&#10;&#9;&#9;C899.6,755.2,899.2,755.6,898.6,755.6z" style="fill: rgb(243, 243, 243);" transform="matrix(1, 0, 0, 1, -2.842170943040401e-14, 0)"/>
<path class="st17" d="M898.6,729v25.6H873V729H898.6 M898.6,726.9H873c-1.1,0-2,0.9-2,2v25.6c0,1.1,0.9,2,2,2h25.6c1.1,0,2-0.9,2-2&#10;&#9;&#9;V729C900.6,727.9,899.7,726.9,898.6,726.9z" style="fill: rgb(230, 230, 229);" transform="matrix(1, 0, 0, 1, -2.842170943040401e-14, 0)"/>
<path class="st12" d="M570.1,791.4h-25.6c-0.6,0-1-0.5-1-1v-25.6c0-0.6,0.4-1,1-1h25.6c0.6,0,1,0.5,1,1v25.6&#10;&#9;&#9;C571.1,790.9,570.7,791.4,570.1,791.4z" style="fill: rgb(243, 243, 243);" transform="matrix(1, 0, 0, 1, -2.842170943040401e-14, 0)"/>
<path class="st17" d="M570.1,764.7v25.6h-25.6v-25.6H570.1 M570.1,762.7h-25.6c-1.1,0-2,0.9-2,2v25.6c0,1.1,0.9,2,2,2h25.6&#10;&#9;&#9;c1.1,0,2-0.9,2-2v-25.6C572.1,763.6,571.2,762.7,570.1,762.7z" style="fill: rgb(230, 230, 229);" transform="matrix(1, 0, 0, 1, -2.842170943040401e-14, 0)"/>
<path class="st12" d="M606.6,791.4H581c-0.6,0-1-0.5-1-1v-25.6c0-0.6,0.5-1,1-1h25.6c0.6,0,1,0.5,1,1v25.6&#10;&#9;&#9;C607.6,790.9,607.2,791.4,606.6,791.4z" style="fill: rgb(243, 243, 243);" transform="matrix(1, 0, 0, 1, -2.842170943040401e-14, 0)"/>
<path class="st17" d="M606.6,764.7v25.6H581v-25.6H606.6 M606.6,762.7H581c-1.1,0-2,0.9-2,2v25.6c0,1.1,0.9,2,2,2h25.6&#10;&#9;&#9;c1.1,0,2-0.9,2-2v-25.6C608.6,763.6,607.7,762.7,606.6,762.7z" style="fill: rgb(230, 230, 229);" transform="matrix(1, 0, 0, 1, -2.842170943040401e-14, 0)"/>
<path class="st12" d="M643.1,791.4h-25.6c-0.6,0-1-0.5-1-1v-25.6c0-0.6,0.5-1,1-1h25.6c0.6,0,1,0.5,1,1v25.6&#10;&#9;&#9;C644.1,790.9,643.7,791.4,643.1,791.4z" style="fill: rgb(243, 243, 243);" transform="matrix(1, 0, 0, 1, -2.842170943040401e-14, 0)"/>
<path class="st17" d="M643.1,764.7v25.6h-25.6v-25.6H643.1 M643.1,762.7h-25.6c-1.1,0-2,0.9-2,2v25.6c0,1.1,0.9,2,2,2h25.6&#10;&#9;&#9;c1.1,0,2-0.9,2-2v-25.6C645.1,763.6,644.2,762.7,643.1,762.7z" style="fill: rgb(230, 230, 229);" transform="matrix(1, 0, 0, 1, -2.842170943040401e-14, 0)"/>
<path class="st12" d="M679.6,791.4H654c-0.6,0-1-0.5-1-1v-25.6c0-0.6,0.5-1,1-1h25.6c0.6,0,1,0.5,1,1v25.6&#10;&#9;&#9;C680.6,790.9,680.2,791.4,679.6,791.4z" style="fill: rgb(243, 243, 243);" transform="matrix(1, 0, 0, 1, -2.842170943040401e-14, 0)"/>
<path class="st17" d="M679.6,764.7v25.6H654v-25.6H679.6 M679.6,762.7H654c-1.1,0-2,0.9-2,2v25.6c0,1.1,0.9,2,2,2h25.6&#10;&#9;&#9;c1.1,0,2-0.9,2-2v-25.6C681.6,763.6,680.7,762.7,679.6,762.7z" style="fill: rgb(230, 230, 229);" transform="matrix(1, 0, 0, 1, -2.842170943040401e-14, 0)"/>
<path class="st12" d="M716.1,791.4h-25.6c-0.6,0-1-0.5-1-1v-25.6c0-0.6,0.5-1,1-1h25.6c0.6,0,1,0.5,1,1v25.6&#10;&#9;&#9;C717.1,790.9,716.7,791.4,716.1,791.4z" style="fill: rgb(243, 243, 243);" transform="matrix(1, 0, 0, 1, -2.842170943040401e-14, 0)"/>
<path class="st17" d="M716.1,764.7v25.6h-25.6v-25.6H716.1 M716.1,762.7h-25.6c-1.1,0-2,0.9-2,2v25.6c0,1.1,0.9,2,2,2h25.6&#10;&#9;&#9;c1.1,0,2-0.9,2-2v-25.6C718.1,763.6,717.2,762.7,716.1,762.7z" style="fill: rgb(230, 230, 229);" transform="matrix(1, 0, 0, 1, -2.842170943040401e-14, 0)"/>
<path class="st12" d="M752.6,791.4H727c-0.6,0-1-0.5-1-1v-25.6c0-0.6,0.5-1,1-1h25.6c0.6,0,1,0.5,1,1v25.6&#10;&#9;&#9;C753.6,790.9,753.2,791.4,752.6,791.4z" style="fill: rgb(243, 243, 243);" transform="matrix(1, 0, 0, 1, -2.842170943040401e-14, 0)"/>
<path class="st17" d="M752.6,764.7v25.6H727v-25.6H752.6 M752.6,762.7H727c-1.1,0-2,0.9-2,2v25.6c0,1.1,0.9,2,2,2h25.6&#10;&#9;&#9;c1.1,0,2-0.9,2-2v-25.6C754.6,763.6,753.7,762.7,752.6,762.7z" style="fill: rgb(230, 230, 229);" transform="matrix(1, 0, 0, 1, -2.842170943040401e-14, 0)"/>
<path class="st12" d="M789.1,791.4h-25.6c-0.6,0-1-0.5-1-1v-25.6c0-0.6,0.5-1,1-1h25.6c0.6,0,1,0.5,1,1v25.6&#10;&#9;&#9;C790.1,790.9,789.7,791.4,789.1,791.4z" style="fill: rgb(243, 243, 243);" transform="matrix(1, 0, 0, 1, -2.842170943040401e-14, 0)"/>
<path class="st17" d="M789.1,764.7v25.6h-25.6v-25.6H789.1 M789.1,762.7h-25.6c-1.1,0-2,0.9-2,2v25.6c0,1.1,0.9,2,2,2h25.6&#10;&#9;&#9;c1.1,0,2-0.9,2-2v-25.6C791.1,763.6,790.2,762.7,789.1,762.7z" style="fill: rgb(230, 230, 229);" transform="matrix(1, 0, 0, 1, -2.842170943040401e-14, 0)"/>
<path class="st12" d="M825.6,791.4H800c-0.6,0-1-0.5-1-1v-25.6c0-0.6,0.5-1,1-1h25.6c0.6,0,1,0.5,1,1v25.6&#10;&#9;&#9;C826.6,790.9,826.2,791.4,825.6,791.4z" style="fill: rgb(243, 243, 243);" transform="matrix(1, 0, 0, 1, -2.842170943040401e-14, 0)"/>
<path class="st17" d="M825.6,764.7v25.6H800v-25.6H825.6 M825.6,762.7H800c-1.1,0-2,0.9-2,2v25.6c0,1.1,0.9,2,2,2h25.6&#10;&#9;&#9;c1.1,0,2-0.9,2-2v-25.6C827.6,763.6,826.7,762.7,825.6,762.7z" style="fill: rgb(230, 230, 229);" transform="matrix(1, 0, 0, 1, -2.842170943040401e-14, 0)"/>
<path class="st12" d="M862.1,791.4h-25.6c-0.6,0-1-0.5-1-1v-25.6c0-0.6,0.5-1,1-1h25.6c0.6,0,1,0.5,1,1v25.6&#10;&#9;&#9;C863.1,790.9,862.7,791.4,862.1,791.4z" style="fill: rgb(243, 243, 243);" transform="matrix(1, 0, 0, 1, -2.842170943040401e-14, 0)"/>
<path class="st17" d="M862.1,764.7v25.6h-25.6v-25.6H862.1 M862.1,762.7h-25.6c-1.1,0-2,0.9-2,2v25.6c0,1.1,0.9,2,2,2h25.6&#10;&#9;&#9;c1.1,0,2-0.9,2-2v-25.6C864.1,763.6,863.2,762.7,862.1,762.7z" style="fill: rgb(230, 230, 229);" transform="matrix(1, 0, 0, 1, -2.842170943040401e-14, 0)"/>
<path class="st12" d="M898.6,825.8H873c-0.6,0-1-0.5-1-1v-60.1c0-0.6,0.5-1,1-1h25.6c0.6,0,1,0.4,1,1v60.1&#10;&#9;&#9;C899.6,825.4,899.2,825.8,898.6,825.8z" style="fill: rgb(243, 243, 243);" transform="matrix(1, 0, 0, 1, -2.842170943040401e-14, 0)"/>
<path class="st17" d="M898.6,764.7v60.1H873v-60.1H898.6 M898.6,762.7H873c-1.1,0-2,0.9-2,2v60.1c0,1.1,0.9,2,2,2h25.6&#10;&#9;&#9;c1.1,0,2-0.9,2-2v-60.1C900.6,763.6,899.7,762.7,898.6,762.7z" style="fill: rgb(230, 230, 229);" transform="matrix(1, 0, 0, 1, -2.842170943040401e-14, 0)"/>
<path class="st12" d="M752.6,827.2H727c-0.6,0-1-0.5-1-1v-25.6c0-0.6,0.5-1,1-1h25.6c0.6,0,1,0.5,1,1v25.6&#10;&#9;&#9;C753.6,826.7,753.2,827.2,752.6,827.2z" style="fill: rgb(243, 243, 243);" transform="matrix(1, 0, 0, 1, -2.842170943040401e-14, 0)"/>
<path class="st17" d="M752.6,800.5v25.6H727v-25.6H752.6 M752.6,798.5H727c-1.1,0-2,0.9-2,2v25.6c0,1.1,0.9,2,2,2h25.6&#10;&#9;&#9;c1.1,0,2-0.9,2-2v-25.6C754.6,799.4,753.7,798.5,752.6,798.5z" style="fill: rgb(230, 230, 229);" transform="matrix(1, 0, 0, 1, -2.842170943040401e-14, 0)"/>
<path class="st12" d="M789.1,827.2h-25.6c-0.6,0-1-0.5-1-1v-25.6c0-0.6,0.5-1,1-1h25.6c0.6,0,1,0.5,1,1v25.6&#10;&#9;&#9;C790.1,826.7,789.7,827.2,789.1,827.2z" style="fill: rgb(243, 243, 243);" transform="matrix(1, 0, 0, 1, -2.842170943040401e-14, 0)"/>
<path class="st17" d="M789.1,800.5v25.6h-25.6v-25.6H789.1 M789.1,798.5h-25.6c-1.1,0-2,0.9-2,2v25.6c0,1.1,0.9,2,2,2h25.6&#10;&#9;&#9;c1.1,0,2-0.9,2-2v-25.6C791.1,799.4,790.2,798.5,789.1,798.5z" style="fill: rgb(230, 230, 229);" transform="matrix(1, 0, 0, 1, -2.842170943040401e-14, 0)"/>
<path class="st12" d="M825.6,827.2H800c-0.6,0-1-0.5-1-1v-25.6c0-0.6,0.5-1,1-1h25.6c0.6,0,1,0.5,1,1v25.6&#10;&#9;&#9;C826.6,826.7,826.2,827.2,825.6,827.2z" style="fill: rgb(243, 243, 243);" transform="matrix(1, 0, 0, 1, -2.842170943040401e-14, 0)"/>
<path class="st17" d="M825.6,800.5v25.6H800v-25.6H825.6 M825.6,798.5H800c-1.1,0-2,0.9-2,2v25.6c0,1.1,0.9,2,2,2h25.6&#10;&#9;&#9;c1.1,0,2-0.9,2-2v-25.6C827.6,799.4,826.7,798.5,825.6,798.5z" style="fill: rgb(230, 230, 229);" transform="matrix(1, 0, 0, 1, -2.842170943040401e-14, 0)"/>
<path class="st12" d="M862.1,827.2h-25.6c-0.6,0-1-0.5-1-1v-25.6c0-0.6,0.5-1,1-1h25.6c0.6,0,1,0.5,1,1v25.6&#10;&#9;&#9;C863.1,826.7,862.7,827.2,862.1,827.2z" style="fill: rgb(243, 243, 243);" transform="matrix(1, 0, 0, 1, -2.842170943040401e-14, 0)"/>
<path class="st17" d="M862.1,800.5v25.6h-25.6v-25.6H862.1 M862.1,798.5h-25.6c-1.1,0-2,0.9-2,2v25.6c0,1.1,0.9,2,2,2h25.6&#10;&#9;&#9;c1.1,0,2-0.9,2-2v-25.6C864.1,799.4,863.2,798.5,862.1,798.5z" style="fill: rgb(230, 230, 229);" transform="matrix(1, 0, 0, 1, -2.842170943040401e-14, 0)"/>
<path class="st12" d="M497.1,754.3h-25.6c-0.6,0-1-0.5-1-1v-25.6c0-0.6,0.5-1,1-1h25.6c0.6,0,1,0.5,1,1v25.6&#10;&#9;&#9;C498.1,753.8,497.6,754.3,497.1,754.3z" style="fill: rgb(243, 243, 243);" transform="matrix(1, 0, 0, 1, -2.842170943040401e-14, 0)"/>
<path class="st17" d="M497.1,727.6v25.6h-25.6v-25.6H497.1 M497.1,725.6h-25.6c-1.1,0-2,0.9-2,2v25.6c0,1.1,0.9,2,2,2h25.6&#10;&#9;&#9;c1.1,0,2-0.9,2-2v-25.6C499.1,726.5,498.2,725.6,497.1,725.6z" style="fill: rgb(230, 230, 229);" transform="matrix(1, 0, 0, 1, -2.842170943040401e-14, 0)"/>
<path class="st12" d="M534,754.3h-25.6c-0.6,0-1-0.5-1-1v-25.6c0-0.6,0.5-1,1-1H534c0.6,0,1,0.5,1,1v25.6&#10;&#9;&#9;C535,753.8,534.6,754.3,534,754.3z" style="fill: rgb(243, 243, 243);" transform="matrix(1, 0, 0, 1, -2.842170943040401e-14, 0)"/>
<path class="st17" d="M534,727.6v25.6h-25.6v-25.6H534 M534,725.6h-25.6c-1.1,0-2,0.9-2,2v25.6c0,1.1,0.9,2,2,2H534&#10;&#9;&#9;c1.1,0,2-0.9,2-2v-25.6C536,726.5,535.1,725.6,534,725.6z" style="fill: rgb(230, 230, 229);" transform="matrix(1, 0, 0, 1, -2.842170943040401e-14, 0)"/>
<path class="st12" d="M497.1,790.7h-25.6c-0.6,0-1-0.5-1-1v-25.6c0-0.6,0.4-1,1-1h25.6c0.6,0,1,0.5,1,1v25.6&#10;&#9;&#9;C498.1,790.3,497.6,790.7,497.1,790.7z" style="fill: rgb(243, 243, 243);" transform="matrix(1, 0, 0, 1, -2.842170943040401e-14, 0)"/>
<path class="st17" d="M497.1,764.1v25.6h-25.6v-25.6H497.1 M497.1,762h-25.6c-1.1,0-2,0.9-2,2v25.6c0,1.1,0.9,2,2,2h25.6&#10;&#9;&#9;c1.1,0,2-0.9,2-2v-25.6C499.1,762.9,498.2,762,497.1,762z" style="fill: rgb(230, 230, 229);" transform="matrix(1, 0, 0, 1, -2.842170943040401e-14, 0)"/>
<path class="st12" d="M533.8,790.7h-25.6c-0.6,0-1-0.5-1-1v-25.6c0-0.6,0.5-1,1-1h25.6c0.6,0,1,0.5,1,1v25.6&#10;&#9;&#9;C534.8,790.3,534.4,790.7,533.8,790.7z" style="fill: rgb(243, 243, 243);" transform="matrix(1, 0, 0, 1, -2.842170943040401e-14, 0)"/>
<path class="st17" d="M533.8,764.1v25.6h-25.6v-25.6H533.8 M533.8,762h-25.6c-1.1,0-2,0.9-2,2v25.6c0,1.1,0.9,2,2,2h25.6&#10;&#9;&#9;c1.1,0,2-0.9,2-2v-25.6C535.8,762.9,534.9,762,533.8,762z" style="fill: rgb(230, 230, 229);" transform="matrix(1, 0, 0, 1, -2.842170943040401e-14, 0)"/>
<path class="st12" d="M497.1,827.2h-25.6c-0.6,0-1-0.5-1-1v-25.6c0-0.6,0.5-1,1-1h25.6c0.6,0,1,0.5,1,1v25.6&#10;&#9;&#9;C498.1,826.7,497.7,827.2,497.1,827.2z" style="fill: rgb(243, 243, 243);" transform="matrix(1, 0, 0, 1, -2.842170943040401e-14, 0)"/>
<path class="st17" d="M497.1,800.5v25.6h-25.6v-25.6H497.1 M497.1,798.5h-25.6c-1.1,0-2,0.9-2,2v25.6c0,1.1,0.9,2,2,2h25.6&#10;&#9;&#9;c1.1,0,2-0.9,2-2v-25.6C499.1,799.4,498.2,798.5,497.1,798.5z" style="fill: rgb(230, 230, 229);" transform="matrix(1, 0, 0, 1, -2.842170943040401e-14, 0)"/>
<path class="st12" d="M534.2,827.2h-25.6c-0.6,0-1-0.5-1-1v-25.6c0-0.6,0.5-1,1-1h25.6c0.6,0,1,0.5,1,1v25.6&#10;&#9;&#9;C535.2,826.7,534.8,827.2,534.2,827.2z" style="fill: rgb(243, 243, 243);" transform="matrix(1, 0, 0, 1, -2.842170943040401e-14, 0)"/>
<path class="st17" d="M534.2,800.5v25.6h-25.6v-25.6H534.2 M534.2,798.5h-25.6c-1.1,0-2,0.9-2,2v25.6c0,1.1,0.9,2,2,2h25.6&#10;&#9;&#9;c1.1,0,2-0.9,2-2v-25.6C536.2,799.4,535.3,798.5,534.2,798.5z" style="fill: rgb(230, 230, 229);" transform="matrix(1, 0, 0, 1, -2.842170943040401e-14, 0)"/>
<g transform="matrix(1, 0, 0, 1, -2.842170943040401e-14, 0)">
		<g>
			<path class="st18" d="M812.5,945.1c0,0-10.1,3.8-28.6-16.9c-18.5-20.7-79.9-79.9-79.9-79.9l10.5-20.1l48.4,36.5l-57.1-111.4&#10;&#9;&#9;&#9;&#9;l21.8-13l47.8,89.5l-42-102.2l20.6-10.2l54,97.5l-39.4-94.5l21.1-9.2l47.6,88.1l-28.5-72.4l24.2-10.1l73,162.7&#10;&#9;&#9;&#9;&#9;c0,0,0.9,12.7-5.2,22.2l3,9.8L818,953.7L812.5,945.1z" style="fill: rgb(247, 213, 164);"/>
		</g>
	</g><g transform="matrix(1, 0, 0, 1, -5.684341886080802e-14, 0)">
			<path class="st18" d="M738.5,711.9c5.7-2.8,12.7-0.4,15.5,5.5c2.9,5.8,0.6,12.8-5.1,15.7c-5.7,2.8-12.7,0.4-15.5-5.5&#10;&#9;&#9;&#9;&#9;C730.5,721.8,732.8,714.7,738.5,711.9z" style="fill: rgb(247, 213, 164);"/>
		</g><g transform="matrix(1, 0, 0, 1, -5.684341886080802e-14, 0)">
			<path class="st18" d="M773.9,705c5.7-2.8,12.7-0.4,15.5,5.5c2.9,5.8,0.6,12.8-5.1,15.7c-5.7,2.8-12.7,0.4-15.5-5.5&#10;&#9;&#9;&#9;&#9;C765.9,714.8,768.2,707.8,773.9,705z" style="fill: rgb(247, 213, 164);"/>
		</g><g transform="matrix(1, 0, 0, 1, -5.684341886080802e-14, 0)">
			<path class="st18" d="M814.8,709.3c6.5-3.2,14.4-0.4,17.7,6.2c3.3,6.6,0.7,14.6-5.8,17.8c-6.5,3.2-14.4,0.4-17.7-6.2&#10;&#9;&#9;&#9;&#9;C805.7,720.5,808.3,712.5,814.8,709.3z" style="fill: rgb(247, 213, 164);"/>
		</g><g transform="matrix(1, 0, 0, 1, -5.684341886080802e-14, 0)">
			<path class="st18" d="M710.8,735c6.2-3.1,13.8-0.4,17,6c3.1,6.4,0.6,14-5.6,17.1c-6.2,3.1-13.8,0.4-17-6&#10;&#9;&#9;&#9;&#9;C702.1,745.7,704.6,738,710.8,735z" style="fill: rgb(247, 213, 164);"/>
		</g><g transform="matrix(1, 0, 0, 1, -5.684341886080802e-14, 0)">
			<path class="st18" d="M704.8,828.4c5.6-2.7,12.3-0.4,15.1,5.3c2.8,5.7,0.6,12.5-5,15.2c-5.6,2.7-12.3,0.4-15.1-5.3&#10;&#9;&#9;&#9;&#9;C697,838,699.2,831.1,704.8,828.4z" style="fill: rgb(247, 213, 164);"/>
		</g>
<g transform="matrix(1, 0, 0, 1, -2.842170943040401e-14, 0)">
		<path d="M 509.6000061035156 980 L 515 969.2000122070312 L 415.1000061035156 920 L 392 967 L 418.3999938964844 980 Z" class="st15" style="fill: rgb(240, 238, 238);"/>
	</g>
<g transform="matrix(1, 0, 0, 1, -2.842170943040401e-14, 0)">
		<path d="M 492.29998779296875 980 L 402.6000061035156 935.7999877929688 L 381 980 Z" class="st16" style="fill: rgb(241, 106, 48);"/>
	</g>
<g transform="matrix(1, 0, 0, 1, -2.842170943040401e-14, 0)">
		<g>
			<path class="st18" d="M515.2,957.9c0,0,10.1,3.8,28.6-16.9c18.5-20.7,79.9-79.9,79.9-79.9L613.2,841l-48.4,36.5l57.1-111.4&#10;&#9;&#9;&#9;&#9;l-21.8-13l-47.8,89.5l42-102.2l-20.6-10.2l-54,97.5l39.4-94.5l-21.1-9.2l-47.6,88.1l28.5-72.4l-24.2-10.1l-73,162.7&#10;&#9;&#9;&#9;&#9;c0,0-0.9,12.7,5.2,22.2l-3,9.8l85.9,42.3L515.2,957.9z" style="fill: rgb(247, 213, 164);"/>
		</g>
	</g><g transform="matrix(1, 0, 0, 1, -5.684341886080802e-14, 0)">
			<path class="st18" d="M589.2,724.8c-5.7-2.8-12.7-0.4-15.5,5.5c-2.9,5.8-0.6,12.8,5.1,15.7c5.7,2.8,12.7,0.4,15.5-5.5&#10;&#9;&#9;&#9;&#9;C597.2,734.6,594.9,727.6,589.2,724.8z" style="fill: rgb(247, 213, 164);"/>
		</g><g transform="matrix(1, 0, 0, 1, -5.684341886080802e-14, 0)">
			<path class="st18" d="M553.8,717.9c-5.7-2.8-12.7-0.4-15.5,5.5c-2.9,5.8-0.6,12.8,5.1,15.7c5.7,2.8,12.7,0.4,15.5-5.5&#10;&#9;&#9;&#9;&#9;C561.8,727.7,559.5,720.7,553.8,717.9z" style="fill: rgb(247, 213, 164);"/>
		</g><g transform="matrix(1, 0, 0, 1, -5.684341886080802e-14, 0)">
			<path class="st18" d="M512.9,722.1c-6.5-3.2-14.4-0.4-17.7,6.2c-3.3,6.6-0.7,14.6,5.9,17.8c6.5,3.2,14.4,0.4,17.7-6.2&#10;&#9;&#9;&#9;&#9;C522,733.3,519.4,725.3,512.9,722.1z" style="fill: rgb(247, 213, 164);"/>
		</g><g transform="matrix(1, 0, 0, 1, -5.684341886080802e-14, 0)">
			<path class="st18" d="M616.9,747.8c-6.2-3.1-13.8-0.4-17,6c-3.1,6.4-0.6,14,5.6,17.1c6.2,3.1,13.8,0.4,17-6&#10;&#9;&#9;&#9;&#9;C625.6,758.5,623.1,750.9,616.9,747.8z" style="fill: rgb(247, 213, 164);"/>
		</g><g transform="matrix(1, 0, 0, 1, -5.684341886080802e-14, 0)">
			<path class="st18" d="M622.9,841.2c-5.6-2.7-12.3-0.4-15.1,5.3c-2.8,5.7-0.6,12.5,5,15.2c5.6,2.7,12.3,0.4,15.1-5.3&#10;&#9;&#9;&#9;&#9;C630.7,850.8,628.5,844,622.9,841.2z" style="fill: rgb(247, 213, 164);"/>
		</g>
</svg>